<?xml version="1.0" encoding="utf-8"?>
<!-- Generator: Adobe Illustrator 24.0.1, SVG Export Plug-In . SVG Version: 6.00 Build 0)  -->
<svg version="1.1" id="e37c00f5-ff96-45aa-87ea-1a24b78ba7bd"
	 xmlns="http://www.w3.org/2000/svg" xmlns:xlink="http://www.w3.org/1999/xlink" x="0px" y="0px" viewBox="0 0 1176.6 874"
	 style="enable-background:new 0 0 1176.6 874;" xml:space="preserve">
<style type="text/css">
	.st0{fill:#99FF66;}
	.st1{fill:#003300;}
	.st2{opacity:0.8;fill:none;stroke:#6C63FF;stroke-width:2;stroke-miterlimit:10;enable-background:new    ;}
	.st3{fill:#FFFFFF;}
	.st4{fill:#FF0000;}
	.st5{opacity:0.1;fill:#333333;enable-background:new    ;}
	.st6{fill:url(#SVGID_1_);}
	.st7{fill:#B07473;}
	.st8{fill:#EFB7B9;}
	.st9{opacity:0.1;enable-background:new    ;}
	.st10{fill:#444053;}
	.st11{fill:#E1E7EF;}
	.st12{fill:#00FF00;}
	.st13{fill:#67647E;}
	.st14{fill:#585268;}
	.st15{opacity:0.1;}
	.st16{opacity:0.1;fill:#6C63FF;enable-background:new    ;}
</style>
<path class="st0" d="M1084,212.5C950.4,26.6,668.3-48.8,390.9,32.4C244.2,75.3,102.8,161.3,32.7,327.9
	c-125.3,297.7,137.8,392.7,309.8,423c83.2,14.7,161.5,39.3,233.1,72.8c128.8,60.3,356.7,113.7,528.6-137.4
	C1228.8,504.3,1172.9,336.2,1084,212.5z"/>
<path class="st1" d="M309.7,249.2c-0.4-3-1.1-5.8-2.2-8.6c-0.3-1.1-1-1.9-2-2.4c-0.6-0.2-1.3-0.2-2,0l-10.1,1.5
	c-0.8,0-1.7,0.4-2.3,0.9c-1.3,1.4,0,3.6-0.1,5.5c0,2.1-1.9,3.9-4,4.5c-2.1,0.4-4.3,0.4-6.4-0.1l-14.1-2.2c4.2-1.3,7.9-3.8,10.7-7.1
	c1.9-2.2,2.8-6.3,0.2-7.3c-0.8-0.2-1.6-0.3-2.4-0.2c-6.4,0-11.4-5.3-17.4-7.5c-7.9-2.8-16.6-0.2-21.7,6.5l7.5,0.4
	c0.7,0,1.4,0.1,2,0.5c1.6,1.4-0.4,4-0.2,6.1c0.3,2.8,4,3.3,6.7,3.6s6.2,2.5,4.9,4.9c-13.8,4.8-27.9-9.3-42.5-7.6
	c-3.7,0.4-7.2,1.9-10.7,2.8c-22,5.6-44.6-9.3-67.1-6.1c-5,0.8-9.9,2.1-14.6,3.9c-3.1,1-6.2,2.1-8.5,4.4s-3.1,6.3-1,8.7
	c-5.8,0.5-11.6-0.1-17.2-1.6c3.1,1.7,5,5,5,8.5c-9,1.5-17.8,4.2-26.2,8c1.6,2.6,3.4,5,5.4,7.2l-11.4,7.4c3.9,1,5.9,6.2,3.6,9.5
	c4-1.8,6.5-6.4,10.8-7.3c2.8-0.6,5.7,0.5,8.3,1.6s5.6,2.1,8.4,1.3s4.8-4.4,3-6.7c11.8-3.4,24-5.3,36.3-5.7c0.9-0.1,1.9,0.1,2.7,0.5
	c1.6,1.1,1.2,3.5,1.1,5.4s1.4,4.5,3.2,3.6c-2,1.8-0.3,5.1,1.7,7s4.3,4.4,3.1,6.9c-0.3,0.6-0.8,1.1-1.1,1.8c-0.9,1.9,0.5,4.1,2.2,5.3
	s3.7,2.1,4.9,3.9s0.6,4.8-1.4,5l-5.9-7.5c-2,2.1-3.4,4.7-4,7.5c6.2,5.1,7.2,15.5,2,21.6c-2.7,3.1-6.5,5-9.8,7.5s-6.4,5.9-6.4,10
	c0,7.1-0.6,13.7,2.1,20.3c4.9,12.2,10.6,24,17,35.4c1.7,3,3.9,6.3,7.3,6.8c-4.3-10.5-8.2-21.1-11.6-31.9c2.2,0,4.8,0.2,6.2,2
	c1.1,1.5,0.9,3.6,1.2,5.4c0.4,1.8,1.1,3.5,2.1,5l20.5,36.6c1.7,3,3.7,6.3,6.9,7.5c2.1,0.8,4.5,0.6,6.4,1.8c1.5,0.9,2.5,2.5,4,3.3
	c4.3,2.4,10.3-2.2,14.4,0.7c1.2,0.8,1.9,2.1,3,3c3.7,3.2,9.9,1.1,14.2,3.5c2.8,1.6,4.2,4.7,5.7,7.5c3.7,7.1,9.7,14,17.7,14.5
	c2.5,0.2,5.1-0.3,7.5,0.3c2.4,0.6,4.8,2.7,4.5,5.2c-0.7,4.2,1.4,8.9,0.9,13.2c-1,7.8-12,11.2-13,18.9c-0.2,1.7,0.1,3.5-0.3,5.1
	c-0.5,2-2,3.7-2.6,5.7c-1,3.8,1.7,7.7,4.7,10.3s6.6,4.8,8.3,8.4c1.7,3.8,0.9,8.3,1.5,12.5c1.2,9.1,9.1,15.8,17.2,20.2
	c2.5,1.3,5.1,2.6,6.7,4.9c2.1,3,1.9,7,2.6,10.5c1.7,8.8,9.1,16,9.3,25c0.1,6.4-3.4,12.1-5.5,18.1c-4,11.6-2.7,24.4,3.5,35
	c1.6,2.7,3.5,5.2,4.6,8.1c2,5.2,1.3,11,3.2,16.2c2.4,6.9,9.1,12.6,8.5,19.9c3,6.3,9.7,9.4,16.5,11.3l12.1,3.4
	c2.3,0.6,4.7,1.3,7.1,0.8s4.6-2.4,4.5-4.8c-5.9-1.3-12-2.8-16.9-6.4s-8.2-10-6.4-15.8c0.9-2.7,2.7-5.8,0.9-8c-1-1.3-2.8-1.6-3.9-2.8
	c-1.7-1.8-1.1-4.8,0.1-7s3.1-4.1,3.6-6.6c0.5-2.8-0.8-5.7-3.2-7.1c2.2-0.8,4.3-2.1,6-3.8c1.6-1.8,2.3-4.6,1.1-6.6
	c3.7,0.5,8,0.7,10.4-2.1c1.9-2.2,1.8-5.6,1-8.4s-2-5.6-2.1-8.6c8.5,0.4,16.9,0.1,25.4-0.9c-1.2-4.1-4-7.6-7.7-9.7
	c3.8-0.6,7.3-5.2,8.5-8.9s0.9-7.7,0.2-11.5c-0.3-1-0.3-2-0.1-3c0.4-1.4,1.8-2.2,3-2.9l18.9-10.9c1.1-0.6,2.2-1.3,3-2.2
	c2-2.3,1.7-5.8,0.7-8.7s-2.6-5.6-3-8.6c-1.2-9.1,8.5-15.6,11.8-24.1c1.3-3.3,1.5-7,1.8-10.6c0.3-3.8,0.3-8.3-2.7-10.8
	c-2.8-2.4-7.3-1.8-10.2-4.1c-2.7-2-3.7-6-6.6-7.6c-2.7-1.5-6.1-0.5-9.1-1.2c-5.3-1.2-8.6-7.3-14-7.9c-3-0.3-6.5,1.2-9-0.6
	c-2.2-1.6-2.3-4.7-2.7-7.4c-1.5-8.5-8.1-15.1-16.6-16.6c-3.1-0.5-6.5-0.3-9.2-2c-2.7-1.7-3.9-5-6.1-7.4c-3.4-3.9-8.8-5.3-13.8-6.5
	l-20.5-4.8c-3.6-0.9-8.3-1.3-10.3,1.9c-0.6,1.2-1,2.5-1.2,3.8c-1.5,4.9-6,8.3-11.1,8.4c-1.7-2.9-4.5-5.1-7.8-6
	c-2.1-0.6-4.3-0.6-6.3-1.5c-4.4-2.1-6.2-7.4-4.1-11.8c0.1-0.1,0.1-0.3,0.2-0.4c2.4-4.3,1.7-9.7-1.9-13.2c-3.5-3.1-8.5-3.9-13.2-3.6
	c-1.2-2.7,0.8-5.7,3-7.6s4.9-3.9,5.4-6.8c0.8-4.6-5.1-8-9.5-6.7s-7.2,5.7-9.1,9.9c-1.1,2.4-2,5-3.7,7s-4.4,3.5-7,2.9
	c-3.6-0.9-5-5.3-5.8-8.9c-1.1-4.9-2.2-9.9-1.9-14.9s1.9-10.2,5.6-13.6c6-5.6,15.3-5,23.5-4.1c-1.9-2.2-1.5-5.8,0.6-7.9
	c2.2-2,5.3-2.7,8.1-2c2.5,0.5,4.7,1.8,6.3,3.8c2.3,2.8,3,6.6,4.7,9.9s5.7,5.9,8.9,4.2c2.8-1.5,3.2-5.4,2.5-8.4s-2.2-6.1-1.9-9.2
	c0.5-6,6.7-9.6,12.2-12.1s11.8-5.8,12.7-11.8c0-1.2,0.3-2.3,0.7-3.4c0.6-1,1.5-1.8,2.5-2.3c16-10.6,32.4-21.3,50.7-27.1
	c1-0.3,1.1,0,2-0.2c1.4-0.8,0.5-3-0.8-3.8s-3-1.5-3.4-3.1c-0.2-1.1,0.4-2.2,0.6-3.4c0.4-2.8-2.9-5.4-5.5-4.3c-1.5-2,1.4-4.2,3.8-4.9
	c7.1-1.9,14.3-3.1,21.7-3.5c0.8-0.1,1.7,0,2.5,0.4c1.2,0.9,1.1,2.8,0.2,4s-2.2,2-3.3,3c-2.4,2.4-3.3,5.9-2.3,9.1
	c3.8,1.9,8,3.9,12.2,3.3s8-5.4,6-9.2c-1.9-3.5-7.4-4.3-8.4-8.2c-1.1-4.5,5.3-8.6,3.9-13c-0.6-1.9-2.6-3.1-4.1-4.5
	c-3.6-3.5-4.7-8.9-2.7-13.6c-4.9,0.9-10-0.7-13.5-4.2c-3.2-3.3-5.8-8.4-10.4-8.3c-4.2,0.1-7.8,5.1-11.8,3.6c-1-0.4-2-1.1-2.9-0.7
	c-0.6,0.4-1,1.1-1.1,1.8c-1,4.8,0.7,10.2-1.9,14.4c-2.8,4.5-9.4,5.1-12.9,9.2c-1.9,2.2-2.6,5.2-4.3,7.5s-5.4,3.8-7.4,1.8
	c2.1-4.3,0.9-9.5-2.8-12.4c-1.9-1.2-4-2.3-6.1-3c-2.4-1-4.7-2.3-6.9-3.8c-1.1-0.6-1.9-1.6-2.5-2.7c-0.5-1.4-0.4-2.9,0.2-4.3
	c2.1-6.1,7.5-10.5,13.9-11.5c2.7-0.4,5.9-0.2,7.8-2.3c1-1.1,1.5-2.8,2.9-3.2c0.9-0.2,1.8-0.1,2.6,0.3l10.2,3.6
	c1.1,0.5,2.4,0.7,3.6,0.6c1.3-0.2,2.2-1.3,2.1-2.6c-0.3-1.7-2.9-2.5-2.7-4.2c0.1-0.6,0.4-1.1,0.9-1.4c7.5-8,18.1-12.2,29.1-11.5
	c1.3,2.1-0.8,4.6-2.5,6.5s-3.1,5.1-1,6.4c0.8,0.4,1.8,0.6,2.7,0.6c2.5,0.3,5,1.1,7.3,2.2c3.5,1.5,7,3.2,10.4,5.1
	c-0.3-2.2-0.6-4.6,0.3-6.7s3.3-3.7,5.4-2.9c2,0.8,3.1,3.5,5.2,3.7c2.9,0.3,4-3.9,2.8-6.6s-3.6-4.9-3.8-7.8c-0.1-2,0.6-4.4-1-5.6
	c-0.6-0.4-1.2-0.6-1.8-0.6l-39.1-7.2c-2.3-0.4-5.7-0.1-5.8,2.3c-0.1,1.3,1.1,2.6,0.6,3.8c-0.6,1.3-2.4,1.2-3.7,1.6
	c-2.1,0.7-3.1,3.2-2.9,5.3c0.4,2.2,1.2,4.2,2.4,6C316.1,250.5,312.3,250.3,309.7,249.2z"/>
<path class="st1" d="M278.5,216c-5-1.7-10.6,0-13.9,4.2c-0.6,0.8-1.2,2-0.6,2.9c0.8,1.3,2.7,0.8,4.2,0.3c2.1-0.8,4.5-0.8,6.6-0.2
	c1.4,0.5,2.6,1.3,3.9,1.7c1.4,0.6,2.9,0.3,4.1-0.6c0.9-1,1-2.4,1-3.8c0.1-0.9-0.2-1.8-0.8-2.5c-0.5-0.3-1.2-0.5-1.8-0.5
	c-1.4-0.3-2.7-1-3.6-2.1"/>
<path class="st1" d="M292.6,212.1c-1.8-0.1-3.3,1.3-3.4,3c0,0.5,0.1,1,0.3,1.5c1.7,0.5,3.5,0.6,5.2,0.3c1.8-0.3,3.2-1.6,3.6-3.3
	c-2,0.4-4.2,0-5.9-1.1"/>
<path class="st1" d="M339.9,205.6c-4.6,1-9.1,2.5-13.3,4.5c4.1,1.6,6.7,5.7,6.4,10.1c-0.2,0.8-0.2,1.7,0.1,2.5
	c0.5,1.2,1.9,1.6,3.2,1.9c2.2,0.7,4.6,1,6.9,0.9c2.4-0.1,4.5-1.4,5.7-3.5c0.3-1,0.7-1.9,1.2-2.8c3-4.6,11.9,1,15.1-3.5
	c1.1-1.6,1-3.9,2.5-5.1c0.8-0.5,1.6-0.9,2.6-1c6.5-1.3,13-2.2,19.5-2.8c3.1-0.3,7.2-1.4,7.2-4.5c-11.7-2.3-23.9-0.7-34.5,4.6
	c-3.9,1.9-8.9,6-12.7,3.4c-1.4-1-1.3-3.5-3.2-4.6C344.6,204.7,342,205.1,339.9,205.6z"/>
<path class="st1" d="M378.2,212.7l5.5,1.1c-3.9-0.2-7.3,2.9-7.4,6.8c0,0.3,0,0.6,0,0.9c5.1,1.7,10.8,0,16.2,0.3s11.7,4.1,10.8,9.5
	c-0.3,1.6-1.2,3.2-0.7,4.8c0.3,1.1,1.3,1.9,1.9,2.9c1.1,2.1,0.2,4.8-1.2,6.7s-3.4,3.4-4.6,5.5c-3.1,5.1-1.4,11.6,0.5,17.3
	c0.5,2.1,1.5,4.1,2.9,5.8c2.8,2.9,7.3,3.2,11.3,3.3c2.9,0,6.3-0.1,8.2-2.4c2.4-3,0.7-7.6,2.3-11.1c1.5-3.2,5.2-4.5,8.5-5.5
	c6.1-1.8,12.4-3.3,18.2-5.9c7.2-3.3,14-8.5,21.9-8.9c2.2-0.1,4.5,0.1,6.7-0.5s4.2-2.5,4-4.7c-0.1-1.9-1.7-3.3-3-4.7
	s-2.2-3.6-1.1-5.1l20.8-3.9c-1.5-4-2.6-9.3,0.8-11.9c1.2-0.9,2.9-1.3,3.9-2.5c1.8-1.9,0.9-5.3-1.2-6.9s-4.8-2-7.4-2.3
	c-9.1-0.8-18.3-0.3-27.4,0.2c-17.9,1-35.7,2-53.6,2.9c-3.6,0.2-7.7-0.1-11,1.1c-2.8,1-4.8,2.9-8,3.6
	C390,210.3,383.6,209.4,378.2,212.7z"/>
<path class="st1" d="M476.7,256.2c-0.6-0.1-1.1,0-1.6,0.4c-0.3,0.3-0.5,0.8-0.5,1.2c-0.4,2,0.1,4.1,1.2,5.8c1.2,1.7,3.2,2.7,5.2,2.5
	c2.5-0.3,4.3-2.4,6.6-3.5c3.5-1.6,18.4-4.1,8.1-9.6c-3.6-1.9-5.8-0.2-8.6,1C483.8,255.7,480.3,256.4,476.7,256.2z"/>
<path class="st1" d="M567,209.6c-1.2,0.5-2.2,1.4-2.9,2.5c-0.6,1.2-0.2,2.7,0.9,3.3c0.4,0.2,0.9,0.2,1.4,0.2l4.9,0.1
	c2.1,0.1,4.7,0.5,5.2,2.5c0.4,1.5-0.5,3.4,0.6,4.5c0.5,0.4,1.1,0.6,1.7,0.6c1.6,0.4,3.3,0.5,4.9,0.2c3.6-1,1.7-3.1,2.8-5.1
	c1.7-3,1.4-1.2,4.4-2.9c2.2-1.3,5.1-3.5,3.3-6.7C591,203.4,571.7,207.2,567,209.6z"/>
<path class="st1" d="M663.5,206.8l-2.8,0.4c-6.4,0.9-12.8,1.7-19,3.6c2.7,1.1,5.5,1.7,8.3,2c1.6,0.1,3.1,0.3,4.7,0.7
	c2.7,0.8,5.5,2.9,8.1,1.8c1.6-0.7,2.2-2.4,3.5-3.3c0.9-0.6,4.5-1.6,4.9-2.3C674.3,204.8,666,206.5,663.5,206.8z"/>
<path class="st1" d="M676,219.7c-3.8,2.1-7.3,4.7-10.5,7.7c-1.3,1.3-2.7,2.8-2.6,4.6c0.2,2.4,2.7,3.8,5,4.8l9.1,3.8
	c1.1-1.6,0.1-3.7-1-5.2s-2.5-3.3-2-5.1c0.6-2.1,3.1-2.8,5.3-3.2c3.5-0.6,12.9-0.5,11.8-6.2C689.7,214.3,679.5,217.7,676,219.7z"/>
<path class="st1" d="M674.2,594.8c-0.9,2.5-0.9,5.5,0.5,7.6c1.7,2.5,5,3.4,7.9,2.7c2.9-0.8,5.5-2.4,7.4-4.7c1.7-1.9,3.2-4.1,4.2-6.5
	c1.5-3.7,2.6-7.6,3.1-11.5l2.8-14.8c0.6-3.3,0.6-13.5-5.5-10.1c-1.7,0.9-5.5,8-7.2,10.1c-3.1,3.6-3.6,7.2-5.2,11.6
	C680.2,584.7,676.1,589.3,674.2,594.8z"/>
<path class="st1" d="M995.3,670.6c-2-0.8-3.9-1.7-5.8-2.8c-1.9,5.1-2.9,10.5-2.9,16l13.6-7.7c2-1.2,4.4-2.8,4.3-5.1
	c0-0.6-0.3-1.2-0.8-1.5c-0.3-0.1-0.6-0.2-1-0.1c-2,0.2-3.9,1.2-5.8,1.9s-4.1,1.1-5.9,0"/>
<path class="st1" d="M1067.2,675.2c-1.5,0.4-3,0.9-4.4,1.6c-3.1,1.6-5.3,4.6-8.1,6.7c-2.7,2-5.9,3.1-9.1,4.2
	c-0.9,0.8-0.5,2.5,0.5,3.2c1.1,0.6,2.3,0.9,3.6,0.8c3.3,0.1,6.8,0.1,9.7-1.5c1.6-1.1,3.2-2.3,4.6-3.6c3.4-2.8,7.4-4.7,11.5-6.5
	c1.5-0.6,2.8-1.4,4-2.4c2.5-2.5,2.7-6.3-0.9-7.2C1075.6,669.8,1070,674.3,1067.2,675.2z"/>
<path class="st1" d="M1098.9,654.4c0.3-3.5-0.9-6.9-3.5-9.3c0,3.4-0.1,7.1-2.1,9.9c-1.4,2-3.5,3.4-5,5.3s-2.2,5-0.4,6.7
	c1.1,0.9,2.5,1.3,3.9,1.4c3.5,0.4,7.6,0.6,10-1.9c1.3-1.4,2-3.4,3.6-4.5c0.6-0.3,1.2-0.6,1.6-1.1c0.7-1.1-0.4-2.5-1.6-2.9
	s-2.5-0.2-3.8-0.6s-2.3-1.7-1.7-2.8"/>
<path class="st1" d="M1042.5,528.8c-1.8,0.4-3.8,0.6-5.6,0.3c-3.1-0.6-5.6-2.9-8.1-4.9c-6-4.6-13.3-7.1-20.8-7.3
	c-6.9-0.1-13.8,1.7-20.5,0.4c0.4,2.4,2.5,4.3,4.8,5.4s4.7,1.6,7,2.7c3.6,1.7,6.5,4.7,8,8.4c0.7,1.7,1.2,3.5,2.3,5
	c2.2,3,6.5,3.7,10.2,3.4c4.9-0.3,10-1.7,14.5,0.1c3.5,1.4,6,4.4,8.9,6.8s7,4.1,10.3,2.4c-7.1-2.3-11.9-9-11.8-16.4
	c3.3,0.3,12.7,0.2,12.2-5.4C1053.4,525.1,1045.3,528.3,1042.5,528.8z"/>
<path class="st1" d="M999.7,567.1c0.6-3.2,3.8-6,2.8-9.1c-0.7-2.1-3.2-3.2-5.4-3.2s-4.4,0.6-6.7,0.7c-1.5-0.1-2.9-0.1-4.4,0.1
	c-4.4,0.7-7.2,5.4-11.4,7c-2.5,1-5.4,0.8-8.1,1.5c-6,1.6-9.8,7.3-14,11.8c-6.8,7.4-15.6,12.5-25.4,14.8c-3.4,0.8-7.1,1.3-9.8,3.5
	c-3.6,2.9-4.5,8-5.3,12.6c-2.2,12.6-5.6,25-10.1,37.1l14.3,1.8c2.7,0.3,5.5,0.7,8.1-0.1c1.9-0.7,3.7-1.7,5.4-2.9
	c6.4-3.9,13.5-6.5,20.9-7.5c3.7-0.5,7.7-0.6,11.2,0.8s6.5,4.5,6.8,8.3c3.1-1,6.5-0.1,8.8,2.1c2.2,2.3,3.7,5.2,4.2,8.4
	c0.4,2,0.8,4.3,2.6,5.1c1.5,0.7,3.2-0.1,4.8-0.2c5.5-0.4,10,6,15.4,4.9c5.8-1.2,7.2-9.8,12.8-11.6c3.2-1,7.8,0.2,9.3-2.8
	c1.4-2.7-1.4-5.7-1.1-8.7c0.3-3.7,4.7-5.2,8-6.8c11.5-5.4,16.9-20.8,11.4-32.2c-3.3-6.8-9.8-12.1-11-19.5
	c-0.9-5.7,1.3-12.4-2.3-16.9c-1.9-2.3-5-3.5-6.1-6.3c-0.7-1.7-0.4-3.7-0.8-5.5s-2-3.7-3.7-3.2c-5.2,1.4-6.9,17.4-9.6,21.3
	C1007.1,578.3,998.4,574.4,999.7,567.1z"/>
<path class="st1" d="M903.6,534.8c-1.8-0.5-3.7-1-5.4-0.3s-2.7,3.2-1.3,4.5c10.7-0.4,21.4-0.8,32,0.6c12.2,1.7,24.3,5.8,36.6,4.6
	c-7-2.1-14.1-3.7-21.3-4.9l-12-2.3c-3.2-0.7-6.5-1.2-9.7-1.5C915.5,534.9,910.4,536.7,903.6,534.8z"/>
<path class="st1" d="M914.3,497.6c-0.9-0.1-2-0.1-2.4,0.6c-0.4,0.7,0.1,1.7-0.2,2.5c-0.3,1.1-1.8,1.4-2.9,1.2s-2.4-0.5-3.4,0
	c-1.1,0.7-1.5,2.1-1.1,3.3c0.4,1.2,1.1,2.3,2,3.2c1.5,1.9,3.2,3.6,5.1,5.1c3.7,2.7,8.7,4,11,8c0.3,0.8,0.8,1.4,1.5,2
	c1.1,0.7,2.6,0.2,3.8-0.4l4.2-1.9c0.8-0.3,1.4-0.7,2-1.3c1-1.3,0.4-3.1-0.4-4.5s-1.8-2.8-1.7-4.5c0.3-2.9,4-4,5.5-6.4
	c1.5-2.5,0.5-5.6,0.7-8.5c0.2-3.4,2.3-7.8-1.1-10.3c-2.9-2.2-5.7-0.2-7.8,2.2C924.5,492.9,922.4,498.3,914.3,497.6z"/>
<path class="st1" d="M939.8,447c1.4,2.7,4.4,4.4,6,7c1.7,2.9,1.5,6.6,3.3,9.4c1.9,2.9,5.7,4.4,6.7,7.7c1.2,3.6-1.5,7.9,0.6,11
	c1.6,2,4.5,2.4,6.5,0.9c0.1-0.1,0.2-0.2,0.3-0.3c1.8-2,1.7-5.1-0.2-7c-1.2-1.1-3-1.6-4-2.9c-0.5-0.8-0.9-1.6-1-2.5
	c-0.6-2.6-0.5-5.4,0.3-8c0.3-0.7,0.3-1.4,0.2-2.1c-0.5-1.3-2.3-1.4-3.6-2.1c-2.9-1.4-2.8-5.5-2.3-8.7c-0.3,2.1-7.9-1.5-8.7-2.7
	c-1.6-2.4-0.7-7-1-9.7C939.3,438.8,938,443.6,939.8,447z"/>
<path class="st1" d="M863.3,489.2c-1.4-1.6-3.5-3.2-5.4-2.3c-1.4,0.7-1.8,2.7-1.3,4.2c0.7,1.5,1.7,2.7,3.1,3.6
	c3.9,3.2,8.1,6.1,11.5,9.9c6.1,6.7,9.3,15.8,16,22c1.3,1.4,3.1,2.4,5,2.7c1.9,0.2,4.1-1.1,4.3-3c0.2-1.6-0.9-3-2-4.2
	c-2.6-2.8-5.4-5.4-7.8-8.3c-1.1-1.1-1.8-2.6-2-4.2c0-1.6,1.4-3.2,3-2.8c-1.9-0.5-3.2-3.6-6-4.2c-2.3-0.5-2.8,0.9-5.6-0.2
	C871,500.2,867,493.2,863.3,489.2z"/>
<path class="st1" d="M985.1,336.5c-1.5-0.4-2.9-1-4.4-1.6c-3.8-1.2-8.9,1.7-8.4,5.7c0.3,2.6,2.8,4.4,4.2,6.7c2,3.4,1.5,7.7,0.4,11.5
	c-0.3,1.2-0.8,2.3-1.5,3.3c-1,1-2.1,1.9-3.4,2.5c-5.2,2.9-9.8,6.8-13.5,11.5c-0.4,0.4-0.7,1-0.8,1.5c-0.2,1.3,1.2,2.3,1.9,3.4
	c1.7,2.5,0.5,5.8,0.6,8.9c-0.1,0.9,0.3,1.7,1.1,2.2c1,0.5,2.2-0.4,2.8-1.4c1.8-3.3,0.5-8.7,3.9-10.3c0.7-0.3,1.4-0.4,1.9-1
	c0.7-0.9,0-2.3,0.4-3.3c0.5-1.6,2.8-1.7,4.5-1.6c3,0.1,5.9-0.3,8.7-1.2c1.1-0.3,2.1-0.8,2.9-1.7c1-1.3,0.9-3.1,0.7-4.8
	c-1-8.2-3.6-16.1-7.6-23.2c3,0.4,6.3,0.7,9-0.9c1.5-0.9,3.2-3.5,2.5-5.3C989.7,334.6,987.6,337,985.1,336.5z"/>
<path class="st1" d="M596.2,381.4c0.4,1.9,0.7,4,0.1,5.9s-2.6,3.4-4.5,2.9c-1.5-0.4-2.3-1.9-3.4-3.1c-5.8-6.3-18.9-2.6-22.5-10.4
	c-1.5-3.2-0.5-7-1.5-10.3c-1.3-4-5.1-6.6-9.3-6.3c-1.8,0.3-3.6,0.8-5.3,1.6c-11.3,4.5-23.3,7.5-35.4,8.9c-2.3,0.1-4.6,0.6-6.8,1.2
	c-5,1.8-8.4,6.4-10.8,11.2s-4.2,9.8-7.5,14c-3.4,4.4-8.2,7.5-12.7,10.8c-1.7,1.1-3.2,2.6-4.2,4.4c-1,2-0.9,4.3-0.8,6.5l0.9,26.8
	c0.1,3.5,0.3,7,1.8,10.1c1.9,3.9,5.7,6.4,8.4,9.8c2.7,3.5,4.1,7.8,4,12.3c-0.1,1.8-0.2,3.9,1.2,5c0.8,0.5,1.8,0.8,2.8,0.8l36.3,3
	c6.4,0.5,13.5,1.4,17.6,6.2c2,2.3,3.5,5.6,6.6,5.8c1.3,0.1,2.6-0.4,3.8-0.5c3.3-0.3,6.1,2.2,7.9,4.9c2.7,4.2,4,9.1,3.5,14.1
	c-0.3,3.1-1.3,6.1-1.5,9.3c-0.8,11.9,9.3,22.2,9.5,34.1c0.1,7-3.2,13.5-6.4,19.7c5.2,7.9,0.9,18.5,3,27.7c2,8.8,9.3,15.7,11.1,24.5
	c0.8,4,0.9,9,4.4,11.1c1.6,0.8,3.3,1.1,5,1c10.5,0.1,20.8-2.2,30.2-6.9c4.4-2.2,9-5.4,9.7-10.3c0.6-3.9-1.4-8.3,0.7-11.7
	c2.4-4,8.5-3.7,12-6.8c5.7-5,1.3-14.6,3.6-21.8c2.1-6.5,9.2-9.9,12.7-15.7c1.4-2.5,2.4-5.2,3-8c1.6-6.7,2.6-13.5,3-20.4
	c0.1-4.2,0.4-8.4,0.9-12.5c3.8-23.6,27.2-39.5,34.8-62.2c0.7-2.2,1.1-5.1-0.9-6.3c-1.1-0.5-2.4-0.7-3.7-0.4l-16.7,2.1
	c-2.1,0.3-4.3,0.5-6.2-0.4s-3.3-3.3-2.3-5.1c2.8-5.1-3-11.7-5.6-16.9c-7-14.2-15.3-27.7-24.9-40.4c-0.6-0.6-1-1.5-1.1-2.4l4.8,0.2
	c-1.6-5.8-4.3-12.1-9.8-14.2c-3.2-1.2-6.6-0.8-10-0.6C616.1,384.3,605.7,382.9,596.2,381.4z"/>
<path class="st1" d="M625.7,251.7c2.5,2.7,5.3,5.5,9,6c6.4,0.8,11.1-5.8,14-11.6c0.2,3.1,2.9,5.4,5.9,5.3c1.6-0.3,3.1-0.9,4.5-1.7
	c12.8-7,27-10.7,41.6-10.7c-0.3-2.3,1.2-4.4,3.4-4.9c3-0.6,5.6,2,7,4.6s2.3,5.7,4.6,7.7s6.7,1.9,7.5-1c0.9-2.8-2-5.1-4.4-6.7
	s-4.9-4.6-3.3-7c12.2-2.7,24.5-5.4,37-6c2.1,0.1,4.2-0.3,6.2-1.1c1.9-0.9,3.4-3.1,2.9-5.1c-5.6,1.3-11.4-0.9-14.7-5.6
	c17.3-1.4,35.8-2.7,51.2,5.5c1.8,4-7.6,7.3-5,10.8c0.8,1.1,2.4,1.3,3.8,1.3c10.7,0.2,21.4,0.4,32-1.2c3.9-0.6,7.8-1.4,11.6-0.9
	c6.5,0.8,12,5.1,18.3,6.5c2.6,0.6,5.5,0.6,7.7-0.9s3.1-4.9,1.3-6.9c6-5.9,15.9-4.4,23.8-1.6s15.4,7.3,23.7,8c6,0.4,12.1-1.2,18-0.1
	c3.7,0.6,7.2,2.3,10.8,3.3c6.9,1.9,14.1,1.5,21.3,1.6c18.2,0.2,36.2,3.8,53.1,10.6c2.2,0.7,4.2,1.9,5.9,3.5c1.6,1.7,2.4,4.3,1.3,6.4
	l-17.5-2.6c1.6,3.2,5.9,3.8,9.4,4.9s7,4.9,5,7.9c-3.7-1.2-7.1,2.6-9,6s-4.2,7.6-8.1,7.8c-3.5,0.2-7.8-2.8-10.1-0.1
	c3.2,4,5.9,8.3,8.1,12.9c2.3,4.7,3.9,10.7,0.8,14.9c-0.5,0.8-1.2,1.3-2.1,1.6c-2.5,0.6-4.1-2.4-5.9-4.3c-2.3-2.3-5.7-3-8.7-4.1
	s-6.3-3.3-6.5-6.5c-0.1-2,0.9-3.9,1.7-5.8c1.3-3.1,1.9-6.5,1.7-9.9c-0.2-2.7-0.9-5.6-2.9-7.5s-5.4-2.5-7.5-0.8
	c-1,0.8-1.8,2.1-3.1,2.2c-2.3,0.1-4-3.9-5.8-2.5c0.2,1.4-0.1,2.9-0.8,4.1c-5.4,4.7-13.7,2.7-20.7,4.4c-3.3,1-6.5,2.3-9.5,4.1
	c-1.1,0.5-2,1.3-2.7,2.3c-0.9,1.7,0.1,3.9,1.6,5c1.6,1,3.5,1.6,5.4,1.8c8.5,1.6,17.2,4.1,23.9,9.6s11.1,14.5,9,22.9l-16.8-16.1
	c0.6,6.7,1,13.5,1.1,20.3c0.1,1.3-0.1,2.7-0.5,3.9c-1.2,2.6-4.4,3.5-7.3,4.1c-3.1,0.6-5.1,3.6-4.5,6.7c0,0.2,0.1,0.4,0.2,0.6
	c1,3.3,3.5,5.9,5.8,8.4s4.6,5.5,4.9,8.9s-2.3,7.3-5.7,7.1c-2.6-0.2-4.5-2.5-5.7-4.9s-1.8-5-3.4-7c-5.1-6.1-16.4-3.5-20.9-10
	c-2.3,2.7-3.1,6.3-2.1,9.7c2.1-1.3,5-0.1,6.6,1.8s2.3,4.4,3.6,6.5c1.7,2.9,4.3,5.5,4.6,8.8c-0.1,1.3,0,2.5,0.1,3.8
	c0.4,2,2.1,3.5,3.3,5.2c2.8,3.9,2.6,9.4,0.8,13.8s-5,8.2-8.2,11.8c-5.5,6.3-11.2,12.6-17.8,17.9c-1.9,1.5-3.9,3-5,5.1
	s-1.2,5,0.6,6.6c-1.3,0.1-3.6,0.7-4.9,0.8c-0.5-5.1-0.5-10.3-0.3-15.5c-5.1-2.4-10.5,4.1-9.9,9.7s4.7,10.1,7.6,14.9
	c2.1,3.5,3.7,7.6,3,11.7s-4.3,7.8-8.4,7.4c-6.5-0.6-9.2-9.9-15.7-11c-0.6-0.1-1.2-0.1-1.7,0.2c-1,0.5-1.1,1.8-1.2,2.9
	c-0.3,5.3-0.5,10.9,1.6,15.8c3.1,7.2,10.9,13.3,9.3,20.9c-8.9-4.1-13.6-14.1-15.7-23.8s-2.5-19.7-6.2-28.8
	c-2.9,3.7-8.9,0.6-11.5-3.2c-2.5-3.7-4-7.9-6.4-11.6s-6.1-7-10.5-7.2c-4.6-0.2-8.6,3-12.2,6c-2.9,2.5-5.9,5-7.6,8.4
	c-2.5,5-1.8,10.8-1.9,16.3c-0.1,6-1.4,12.3-5.5,16.7s-11.6,5.9-16.1,2c-2.4-2.1-3.5-5.1-4.5-8.1c-4.9-14.3-9-28.8-12.2-43.5
	c-0.8,3.4-3.7,7.7-6.5,5.7c-0.6-0.5-1.1-1.2-1.5-1.9c-5.3-8.9-15-14.3-24.8-17.5s-20.2-4.7-29.9-8.2c-5.5-2-10.7-4.6-15.5-7.7
	c-2.5,3.7-2.8,8.5-0.7,12.5c2.2,3.8,7,6,11.2,4.7c2.2-0.7,4-2.2,6.1-2.9s5-0.4,6,1.7c0.9,2-0.5,4.4,0.2,6.4c1,3.1,5.8,3.4,7.4,6.2
	c1.2,2.1,0.2,5-1.5,6.7s-4.1,2.7-6.3,3.9c-7,3.9-11.9,10.5-18,15.7s-14.7,8.9-22,5.6c1.7-8.8-8.7-15.2-10.6-23.9
	c-0.6-2.9-0.3-5.9-1.2-8.7c-1.3-4.1-4.9-6.8-7.9-9.9c-7.2-7.6-11.1-17.8-10.7-28.3c0.2-3.6,0.8-7.3,0-10.8s-3.7-6.9-7.3-6.8
	c-8.2,0.4-18.6,1-22.9-6c-1.5-2.5-2.2-6.2,0-8.1c1.6-1.4,3.9-1.2,6-1l18.6,1.8c4.3,0.4,9,0.8,12.8-1.5s5.3-8.3,1.9-11
	c-2.5-2-7-1.8-7.8-4.9c-0.6-2.6,2.3-5.5,0.7-7.7c-1.1-1.5-3.6-1.1-5.1,0s-2.6,2.9-4.3,3.7c-3,1.5-6.5,0.1-9.7-0.9s-7.5-1.1-9,1.9
	c-1.7,3.3,1.5,7.6-0.2,11c-2.3,4.4-10,1.9-13.1,5.7c-3.7,4.3,2.5,10.8,1.3,16.3c-3.2,1.6-7,1.4-10-0.6c-3-2-4.6-5.5-4.2-9.1
	c0.3-2.5,1.6-5,0.7-7.4c-0.7-1.9-2.6-3-4.4-4l-18-10c-1.7,3.1,0.4,7,3.1,9.3s6,4.1,7.7,7.2c2.3,4.4,0.7,9.9-3.5,12.4
	c-0.5,0.4-1.2,0.5-1.8,0.3c-0.6-0.3-1-0.9-1.2-1.6c-3.2-8.1-8-16.2-15.6-20.4s-18.6-3.4-23.6,3.8c-1.2,1.7-2,3.6-3,5.4
	c-5.5,9.6-17.3,14.1-28.4,13.8c-1.1,0.1-2.2-0.2-3.1-0.7c-1.8-1.2-1.7-3.8-1.4-6l1.2-9.1c0.2-1.8,0.6-3.9,2-5c2-1.6,5-0.6,7.6-0.6
	c4-0.2,7.5-2.9,8.7-6.7c1.1-3.9-0.1-8-3-10.8c-1.2-1.1-2.8-2.5-2.2-4c0.5-0.8,1.4-1.4,2.3-1.6c4.7-1.4,9.6-1.7,14.2-3.3
	s9.1-4.9,10.1-9.6c0.3-1.5,0.5-3.2,1.8-3.9c0.7-0.3,1.4-0.4,2.1-0.4c5.2-0.7,8.9-5.3,8.6-10.5c2.2-1.5,5.3-0.4,7.4,1.2
	s4,3.8,6.6,4.5c4.8,1.3,9.5-3,14.5-3c2.1,0,4.3,0.7,6.3,0c2-0.7,3.2-2.7,4.8-4.2s4.2-2.4,5.7-0.8l-1.2-9c4.9,1.2,10.2,0.3,14.4-2.6
	l-15.7-5.3c-0.5-0.1-1-0.4-1.5-0.8c-1.1-1.2,0-3.1,0.9-4.5c2.2-3.3,2.6-8.8-1.1-10.5c-2.5-1.1-5.3,0.2-7.7,1.6l-11.4,6.4
	c-0.4,2.2,2.3,3.4,3.9,4.9c2.7,2.4,3,6.6,0.5,9.3c-1.2,1.4-3,2.2-4.9,2.2c1.5,2,2.1,4.6,1.5,7l-7.7,0.6c-0.9,0.2-1.8,0-2.5-0.5
	c-0.8-0.7-0.7-2-0.9-3.1c-0.5-2.6-3-4.5-5.6-4.9s-5.3,0.1-7.9,0.7c-1.1,0.4-2.3,0.4-3.4-0.1c-0.6-0.4-1.1-1-1.3-1.7
	c-1.1-2.8-0.1-6,1.7-8.3s4.3-4.1,6.6-6c5.4-4.7,9.3-10.8,11.4-17.6c4.2-1.8,8.6-4.2,12.9-6c6.5-3.3,13.9-4.7,21.2-4.1l14.3,0.3
	c4.2,0.1,8.6,0.2,12.5,1.8s7.4,5.1,7.7,9.4c0.2,1-0.2,2-0.9,2.6c-0.6,0.3-1.2,0.4-1.8,0.4C631.4,250.6,629.7,251.6,625.7,251.7z"/>
<path class="st1" d="M511.3,296.7c1.1-1.1,1.6-2.7,1.1-4.2c-2.8-1.1-5.9-0.5-8.1,1.5c-0.9,0.9-1.6,1.8-2.2,2.9
	c-1.9,3.1-3.6,6.8-2.5,10.2c0.2,0.8,0.7,1.4,1.3,1.8c0.5,0.2,1,0.3,1.5,0.2c2.1,0,4.2-0.1,6.2-0.4c1.3-0.2,2.7-0.5,3.2-1.7
	c0.6-1.5-0.9-3.3-0.5-4.9c0.3-0.7,0.8-1.4,1.3-1.9c0.6-0.5,0.9-1.3,0.8-2.1c-0.2-0.8-1.3-1.2-1.8-0.5"/>
<path class="st1" d="M522.1,282.7c-1.8-0.4-3.7-0.5-5.6-0.4c-0.4,0-0.8,0.1-1.2,0.3c-0.4,0.3-0.6,0.6-0.7,1.1
	c-0.8,2.6,0.5,5.5,3.1,6.5c0.7,0.2,1.3,0.4,1.9,0.8c1.6,1.2,0.6,3.8,0.9,5.8c0.3,2.2,2.5,4.1,2.1,6.3c-0.3,1.8-2.2,3.1-1.9,4.9
	c0.3,1.8,2.7,2.4,4.5,2.5c1.1,0.2,2.2,0.1,3.2-0.4c1-0.7,1.7-1.7,2-2.9c0.8-2.3,1.1-4.7,0.9-7.1c0-1.1-0.3-2.2-0.8-3.1
	c-0.6-0.8-1.2-1.5-1.9-2.1C525.1,290.8,528.9,284.7,522.1,282.7z"/>
<path class="st2" d="M991.2,607.8c0,0-273.2-156.8-390.8-127.1c0,0-249.3,26.8-278.2,85.8c0,0-79.2-247.6-108.1-255.9"/>
<path class="st2" d="M322.2,566.5C368,444.4,780.7,309,780.7,309c-58.6,14.9-180.3,171.7-180.3,171.7s-257.5-187.4-386.3-170
	c0,0,567,18.6,777.1,297.1"/>
<circle class="st3" cx="214.1" cy="310.6" r="12"/>
<circle class="st3" cx="322.2" cy="566.5" r="12"/>
<circle class="st3" cx="780.7" cy="309" r="12"/>
<circle class="st3" cx="991.2" cy="607.8" r="12"/>
<circle class="st3" cx="600.4" cy="480.7" r="12"/>
<path class="st4" d="M374.8,509.1c-9-8.9-23.4-8.7-32.2,0.4c-8.8,9.1-21.3,55-21.3,55s45.2-13.8,54-22.9
	C384,532.5,383.8,518,374.8,509.1z M351.1,533.6c-4.2-4.1-4.3-10.9-0.2-15.1c4.1-4.2,10.8-4.3,14.9-0.2c4.2,4.1,4.3,10.9,0.2,15.1
	c0,0,0,0,0,0C361.9,537.6,355.3,537.7,351.1,533.6z"/>
<g>
	<ellipse class="st5" cx="134.2" cy="831" rx="117.9" ry="23.1"/>
	
		<linearGradient id="SVGID_1_" gradientUnits="userSpaceOnUse" x1="224.5003" y1="-22.6163" x2="224.5003" y2="496.4196" gradientTransform="matrix(1 0 0 -1 -49.43 819.23)">
		<stop  offset="0" style="stop-color:#808080;stop-opacity:0.25"/>
		<stop  offset="0.54" style="stop-color:#808080;stop-opacity:0.12"/>
		<stop  offset="1" style="stop-color:#808080;stop-opacity:0.1"/>
	</linearGradient>
	<path class="st6" d="M299.1,577.4c0,0-20-23.1-26.2-23.4c-3.6-0.2-7.8-2.3-10.6-4l-0.7-0.4c0.7-1,0.3-1.5,0-1.8
		c-0.1-0.1-0.2-0.2-0.4-0.2l-47.7-43.4c0.4-0.8-2.1-10-2.1-10l-2.5-9.6l-5.4-8c0,0,1.5-5.6,0-8.4s-1.2-9.4-2.2-25.3
		s-6.7-16.9-6.7-16.9s-21.9-16.7-24.4-16.3c-2.4,0.5-5.5-4.8-5.9-5.5l0-0.1c0,0,0,0.1,0,0.2c0-0.6,0-1.2,0-1.8l0,0
		c0-0.2,0-0.4,0-0.7l0,0c0.4-2.6,1.1-5.2,1.9-7.7c0.2-0.5,0.4-1,0.6-1.5c8.8-2.8,15.8-10.7,18.3-20.9c0-0.2,0.1-0.4,0.1-0.5
		c1.1,0.2,2.2,0.2,3.2,0.3h0.2c-0.3-0.8-0.6-1.7-0.7-2.6h-0.2c-0.1-0.5-0.1-0.9-0.1-1.4c0.1,0.3,0.2,0.6,0.3,0.9
		c-0.2-2.8,0.1-5.6,1.1-8.1c1.2-3.6,3.1-6.9,4.5-10.4c1-2.4,1.5-5,1.4-7.6c-0.1-0.9-0.3-1.9-0.6-2.7c0,0,0,0.1,0,0.1
		c0,0.2,0,0.4,0,0.6c-0.5-1.9-1.6-3.4-3.1-4.4c-1.2-0.7-2.6-0.8-3.7-1.7c-3.3-2.5-3.1-6.6-7.5-7.9c-3.5-1.1-7.3-1-10.9-2.1
		c-7.7-2.4-14.2-0.9-21.7,2.2c-5.6,2.6-11,5.9-15.2,10.8c-4.2,4.9-7.1,11.6-6.7,18.4c0.1,2.2,0.6,4.3,1.5,6.1
		c0.9,1.6,2.2,2.9,2.7,4.8c0.5,2.1-0.2,4.3-0.2,6.5c0,2,1.2,4.3,2.8,4.3c0.2,0,0.5,0,0.7-0.1c0.6-0.2,1.1-0.6,1.5-1.2
		c0.1,0.3,0.2,0.5,0.3,0.8c0.3,0.6,0.5,1.2,0.8,1.8c0,0.3-0.1,0.7-0.2,1c-0.6,2.5-1.8,4.7-3.4,6.5c-0.4,0-0.8,0.2-1.1,0.4l0,0
		l-0.3,0.2l-10.9,6.3h-1.2c-3.5-0.1-13.6-0.1-15.2,0.6c-1.9,0.9-20.2,2.6-20.2,2.6s-9.7,0.7-9.2,17c0,0-3.7,13.8-4.8,16.1
		c-1.1,2.3-7.5,24.8-7.5,24.8l-7.5,42.9l-0.9,47.5c0,0,0,5.4-0.1,11.8c-0.3,10.7-0.8,19.5-1.4,21l0,0l0.7,0.3c0,0.1-0.1,0.2-0.1,0.4
		l0.6-0.2l4.2,1.8c0,0-10.3,13.5-2.8,16.9c3.7,1.7,12.4,6.5,20.3,11c-1.6,9.9-0.8,20.2,2.1,29.7c1,5.5,1.2,11.3,0.5,16.9
		c-1.2,8.5,0.1,36.8,0.1,36.8l-0.1,49.5c0,0,1.6,31.8,3,38.6s-3,9.6-3,9.6s2.9,18.7,6.3,21.1c-0.1,0.4-0.1,0.8-0.2,1.1
		c-0.7,3.1-1.5,6-2.6,8.9c-2.4,6.5-0.9,11.1-0.9,11.1s0.2,9.1,14.5,11s13.7-9.6,12.5-14c-0.7-2.7-0.2-11,0.3-17.1
		c0-0.5,0.1-1,0.1-1.4c0.9-0.6,2-2,3.3-5c2.8-6.4,0-21.7-2-26.7c-2-5-0.2-10.5-0.2-10.5s-2.2-28.3,0-30.7c2.2-2.4,1.8-13.1,1.8-13.1
		l3.6-22.1l4.2-9.4l1.2-20.6l3.3-18.2c0,0,1.4-1.5,2.6-16c1.2-14.4,2.8-9.9,2.8-9.9c-0.6,9.6,4,14.5,4,14.5l1.2,25.2
		c0,0,1.5,18.8,4.1,23.4c2.5,4.6,0,10.3,0,10.3s0.8,18,0.1,23.2c-0.7,5.3,2.9,17.3,2.9,17.3l1,21.7c0,0-6,19.5-3.2,25.9
		c2.8,6.4,1.4,13.8,1.4,13.8c0.1,0.4,0.3,0.8,0.6,1.2c-0.1,0.3-0.1,0.7-0.2,1c-0.4,2.3-0.7,4.7-0.9,7c0,0,1.5,2.3,8.1,5.1
		s5.2,7.7,6.2,10.7c1,3.1,7.7,5.8,21.1,5.1c13.3-0.7,4.9-11.7,4.9-11.7s-6.9-11.3-9.3-12.8c-0.8-0.5-1.7-2.3-2.5-4.3
		c-0.1-0.4-0.3-0.8-0.4-1.2l0.6-0.2c0,0,3.5-32.4,1-35.5s0.9-24.1,0.9-24.1s1.7-7,0.9-9s0.8-9.6,0.8-9.6s1.2-20.8-1-25.6
		s1.2-32.9,1.2-32.9s1.4-26.3,4.9-35.7c0.7-1.7,1-5.4,1.3-10.2c1.9-1.1,3.1-1.9,3.1-1.9s4-62.4,1.6-70.2c-1.4-4.9-2.1-10.1-2.1-15.4
		l4.6-18.9c0,0,3,9.4,4.9,10.5c1.9,1.1,4.3,5.8,4.3,5.8l20.4,18.7l15.8,13.3l14,13.3c0.3-3.1,1.2-6.1,2.5-8.8l0.5,0.2
		c2.6,1.1,5.9,2.4,5.1,1.9c-0.4-0.3-0.2-2,0.5-4.2l0.6,0.7c2.9,3.1,6,6,9.2,8.8c14.8,13,22.6-1.5,22.6-1.5s7.5,7.4,11.1,9.1
		C299.2,582.6,299.1,577.4,299.1,577.4z"/>
	<path class="st7" d="M140.1,810c0,0,1.4,2.3,7.7,5.1c6.3,2.8,4.9,7.6,5.8,10.7c0.9,3,7.4,5.8,20,5.1c12.6-0.7,4.6-11.6,4.6-11.6
		s-6.6-11.2-8.9-12.7c-0.8-0.5-1.6-2.3-2.4-4.3c-1-2.9-1.9-5.9-2.6-9c0,0-20.8,3.3-22.4,5.7c-0.6,1.3-1,2.7-1.2,4.1
		C140.6,805.3,140.3,807.7,140.1,810z"/>
	<path class="st7" d="M84,829.2c0,0,0.2,9,13.8,10.9s13-9.6,11.9-13.9c-0.7-2.7-0.2-10.9,0.3-16.9c0.3-3.9,0.6-6.8,0.6-6.8
		s-22.8,0.5-22.6,2c0,1.7-0.2,3.3-0.6,4.9c-0.6,3-1.5,6-2.5,8.9C82.6,824.6,84,829.2,84,829.2z"/>
	<path class="st8" d="M245.1,560.1c0.4,0.9,1.3,2.5,3.7,5.1c2.8,3.1,5.7,6,8.7,8.7c14.1,12.9,21.4-1.5,21.4-1.5s7.1,7.4,10.6,9
		s3.3-3.6,3.3-3.6s-19-22.9-24.9-23.2c-3.4-0.2-7.4-2.2-10.1-4c-2-1.3-3.4-2.3-3.4-2.3l-5.1,5.7l-4.4,4.9
		C244.9,559,244.7,559.2,245.1,560.1z"/>
	<path class="st9" d="M142.2,799c-0.6,1.3-1,2.7-1.2,4.1c3.5,5.9,24.4-0.3,26.1-0.8c-1-2.9-1.9-5.9-2.6-9
		C164.5,793.3,143.7,796.6,142.2,799z"/>
	<path class="st9" d="M87.3,809.3c0.1,0.1,0.3,0.2,0.4,0.3c3.4,1.8,20.8,0,20.8,0c0.5,0.1,1,0,1.4-0.4c0.3-3.9,0.6-6.8,0.6-6.8
		s-22.8,0.5-22.6,2C87.9,806.1,87.7,807.7,87.3,809.3z"/>
	<path class="st10" d="M81,637c1,5.5,1.1,11.2,0.5,16.7c-1.1,8.5,0.1,36.5,0.1,36.5l-0.1,49.1c0,0,1.5,31.5,2.8,38.3
		c1.3,6.7-2.8,9.6-2.8,9.6s2.8,19.3,6.2,21.1s20.8,0,20.8,0s2.1,0.9,4.7-5.4s0-21.5-1.9-26.5s-0.2-10.4-0.2-10.4s-2.1-28,0-30.4
		c2.1-2.4,1.7-13,1.7-13l3.4-22l4-9.4l1.1-20.4l3.2-18c0,0,1.3-1.5,2.5-15.9c1.1-14.3,2.6-9.8,2.6-9.8c-0.6,9.6,3.8,14.3,3.8,14.3
		l1.2,25c0,0,1.5,18.7,3.9,23.3c2.4,4.6,0,10.2,0,10.2s0.8,17.8,0.1,23c-0.7,5.2,2.8,17.2,2.8,17.2l0.9,21.5c0,0-5.7,19.3-3,25.6
		c2.6,6.3,1.3,13.7,1.3,13.7c2.1,7.6,26.6,0,26.6,0s3.3-32.2,0.9-35.2s0.8-23.9,0.8-23.9s1.6-6.9,0.9-8.9s0.8-9.6,0.8-9.6
		s1.1-20.7-0.9-25.4c-2.1-4.8,1.1-32.6,1.1-32.6s1.3-26.1,4.7-35.4c0.6-1.7,1-5.3,1.2-10.1c1-21.3-1.2-65.5-1.2-65.5l-9.2-14.6
		l-9.6-0.6l-9.3-0.6l-17.5-1.1l-17.2-1.1L91.5,535c0,0-4.3,44.8-10.5,64.1c-0.9,2.7-1.5,5.5-1.9,8.3C77.6,617.4,78.3,627.5,81,637z"
		/>
	<path class="st8" d="M132.4,389.4l7.5,21.2l16.3,3.1c0,0,8.6,3.4,8.2-5.1c-0.2-4.5,1-9.3,2.2-12.8c0.6-1.8,1.3-3.5,2.1-5.2
		c0,0-33.4-21.7-31.6-14.3c0.4,1.6,0.4,3.3,0.1,4.9C136.1,386.1,132.4,389.4,132.4,389.4z"/>
	<polygon class="st7" points="151.9,543.7 115.3,543.7 117.2,558.5 152.7,558.5 	"/>
	<polygon class="st9" points="151.9,543.7 115.3,543.7 117.2,558.5 152.7,558.5 	"/>
	<path class="st9" d="M245.1,560.1c0.4,0.9,1.3,2.5,3.7,5.1c1.2-4.2,4-10.3,6.8-12.3c0.9-0.6,1.6-1.3,2.2-2.2
		c-2-1.3-3.4-2.3-3.4-2.3l-5.1,5.7L245.1,560.1z"/>
	<path class="st11" d="M240.2,565.7c0,0,1.2,0.6,2.7,1.2c2.5,1.1,5.6,2.4,4.8,1.8c-1.2-0.9,3-13.4,7.3-16.5c3.2-2.3,2.6-3.4,2.1-3.9
		c-0.1-0.1-0.2-0.1-0.3-0.2l-3.4-1.4L240.2,565.7z"/>
	<path class="st9" d="M137,376.4c0.4,1.6,0.4,3.3,0.1,4.9c5.6,12.2,17.8,18.3,29.4,14.6c0.6-1.8,1.3-3.5,2.1-5.2
		C168.6,390.7,135.2,369,137,376.4z"/>
	<path class="st8" d="M134.2,366.2c0,16.2,11.4,29.4,25.5,29.4c14.1,0,25.5-13.2,25.5-29.4c0-16.2-11.4-29.4-25.5-29.4c0,0,0,0,0,0
		c-14-0.1-25.4,12.9-25.5,29C134.2,366,134.2,366.1,134.2,366.2z"/>
	<path class="st11" d="M111.7,543.8l16.3,0.8l18.8,1l9.2,0.5l0.7-7.1l7.2-73l2.4-55.3h-6.5l-18-3.4l-6.4-2.7l0,0L127,401l-6.8,16
		l-2.3,73.2l-5.4,46.2L111.7,543.8z"/>
	<path class="st9" d="M133.9,462.8c0,0,6.5-32.8,11-39.1c0,0-1.7-11.3-5.4-12.7c-3.8-1.5,5.7-3.6,5.7-3.6l5.8,2.3l5.8,2.7
		c0,0-5.1,5.2-4.2,12.1c-0.5,3.1-0.2,6.2,0.7,9.1c1.6,4.6,1.8,41.6,0,46.5c-1.8,4.9-1.6,15.7-1.6,15.7l-3.8,21l-1.3,25.3l-13.7,11.8
		l-9.6-13.9L133.9,462.8z"/>
	<path class="st1" d="M133.4,462.1c0,0,6.5-32.8,11-39.1c0,0-1.7-11.2-5.4-12.7c-3.7-1.5,5.7-3.6,5.7-3.6l5.8,2.3l5.8,2.7
		c0,0-5.1,5.2-4.2,12.1c-0.5,3.1-0.2,6.2,0.7,9.1c1.6,4.6,1.8,41.6,0,46.5c-1.8,4.9-1.6,15.7-1.6,15.7l-3.8,21l-1.3,25.3l-13.7,11.7
		l-9.6-13.9L133.4,462.1z"/>
	<path class="st9" d="M164.6,404.2l-14.1,5.4c0,0,7.1,4.2,7.1,16.6C157.6,426.2,164.8,416.1,164.6,404.2z"/>
	<path class="st11" d="M164.6,403.6l-14.1,5.4c0,0,7.1,4.2,7.1,16.6C157.6,425.6,164.8,415.5,164.6,403.6z"/>
	<path class="st9" d="M133.9,388.4c0,0,6.9,13.8,16.6,21.3c0,0-5.8-2.5-16.6,6.9C133.9,416.6,127.2,389,133.9,388.4z"/>
	<path class="st11" d="M133.9,387.7c0,0,6.9,13.8,16.6,21.3c0,0-5.8-2.5-16.6,6.9C133.9,416,127.2,388.4,133.9,387.7z"/>
	<path class="st9" d="M240.2,565.7c0,0,1.2,0.6,2.7,1.2c4.2-9.4,12.7-17.2,14.2-18.5c-0.1-0.1-0.2-0.1-0.3-0.2l-3.4-1.4L240.2,565.7
		z"/>
	<path class="st9" d="M144.7,589c0.4,10.9,5.7,31.1,5.7,31.1c6.6,10.5,21.1,2.8,26.3-0.4c1-21.3-1.2-65.5-1.2-65.5l-9.2-14.6
		l-9.6-0.6l7.2-73l2.4-55.3h-3.6c-1.2,5.6-3,15.1-2.7,17.4c0.5,3.4-4.4,37-4.4,37l-6.1,42.8l-1.7,11.7c0.5,2,0.1,10.2-0.5,18.8
		c-0.2,2.4-0.4,4.8-0.6,7.1c-0.7,7.9-1.3,14.6-1.3,14.6C144.5,567.7,144.7,589,144.7,589z"/>
	<path class="st12" d="M145.8,588.3c0.4,10.9,5.7,31.1,5.7,31.1c8,12.9,28.1-1.6,28.1-1.6s3.8-62,1.6-69.6c-1.4-4.9-2.1-10-2-15.2
		l4.4-18.7c0,0,2.8,9.3,4.7,10.4c1.9,1.2,4.1,5.7,4.1,5.7l19.4,18.6l15,13.2l13.3,13.2c1-13.7,16.7-27.2,16.7-27.2l-45.3-43.1
		c0.4-0.8-2-9.9-2-9.9l-2.4-9.5l-5.1-7.9c0,0,1.4-5.5,0-8.3c-1.4-2.8-1.1-9.3-2.1-25.1c-1-15.8-6.3-16.8-6.3-16.8
		s-20.8-16.6-23.2-16.1c-2.2,0.5-5.2-4.8-5.6-5.5l0-0.1c0,0-4,18.3-3.6,21.7c0.4,3.4-4.4,37-4.4,37l-6.1,42.8l-1.7,11.7
		c1.2,4.4-2.4,40.5-2.4,40.5C145.7,567,145.8,588.3,145.8,588.3z"/>
	<path class="st9" d="M79.1,607.5c8.1,4.8,15.6,9.4,15.6,9.4s12.6,4.8,17.6-22.4l14.6-46.2c0,0,0.4-1.4,1-3.7
		c0.5-1.9,1.1-4.4,1.8-7.2c2.9-11.8,6.7-29.7,5.3-36.8V500l-0.3-63.1c0,0,1.5-29.7,0.6-32.1c0-0.1,0-0.1-0.1-0.2l0,0L127,401
		l-6.8,16l-2.3,73.2l-5.4,46.2L91.5,535c0,0-4.3,44.8-10.5,64.1C80.2,601.9,79.5,604.7,79.1,607.5z"/>
	<path class="st12" d="M59.8,596.6c7.1,3.4,33.8,19.7,33.8,19.7s12.6,4.8,17.6-22.4l14.6-46.2c0,0,10.3-36.9,8.1-47.7v-0.5
		l-0.3-63.2c0,0,1.5-29.7,0.6-32.1c-0.9-2.3-2-9.2-1.5-15c0-0.3,0.1-0.6,0.1-0.9l-0.3,0.2l-10.3,6.3H121c-3.3-0.1-13-0.1-14.4,0.6
		c-1.8,0.9-19.2,2.6-19.2,2.6s-9.2,0.6-8.8,16.9c0,0-3.5,13.7-4.5,16c-1,2.3-7.2,24.6-7.2,24.6l-7.2,42.6L58.9,545
		c0,0-0.1,30.1-1.5,32.6l5.1,2.3C62.5,579.9,52.7,593.2,59.8,596.6z"/>
	<path class="st8" d="M84.9,569.8l3.2,4.9c0,0,19.6,41-2.3,35c-21.9-6-18.7-26.6-18.7-26.6l1.3-14.3L84.9,569.8z"/>
	<path class="st9" d="M112.6,791c-0.5-0.1-8.1-3.8-13.4-3.8c-5.3,0-12.4-0.7-11.5,1c0.9,1.6,11,1.8,14,3.5c2.9,1.6,9.2,6.1,9.7,6.3
		C111.9,798.2,112.6,791,112.6,791z"/>
	<path class="st9" d="M165.2,772.5c-0.1,0.6-11.3,15.2-17.5,14.5C141.4,786.5,165.2,772.5,165.2,772.5z"/>
	<path class="st9" d="M161.9,737.9c0,0-12.1,35.3-15.9,37.2c-3.9,1.9-4.4-4.4-2.4-6.1C145.7,767.2,152.1,755.8,161.9,737.9z"/>
	<path class="st9" d="M99.8,726.2c0,0-2,13,3,21.5C107.9,756.2,99.8,726.2,99.8,726.2z"/>
	<path class="st9" d="M131.5,608c0.2-0.2-18-1.1-18-1.1S121.7,617.2,131.5,608z"/>
	<path class="st9" d="M129.3,617l-11,1.2C118.2,618.2,122.1,623.6,129.3,617z"/>
	<path class="st9" d="M194.5,481.5c0,0,9.9,1.5,10.9,4.9C206.3,489.7,194.5,481.5,194.5,481.5z"/>
	<path class="st9" d="M212.1,509.4c-0.8-0.3-6.9-2.4-11.2-1.1c-4.3,1.3-10.5-2.4-10.5-2.4s-6.2-0.2-5,0.8s4.9,0.5,7,2
		c2.1,1.4,7.5,2.6,8.9,2C202.7,509.9,212.1,509.4,212.1,509.4z"/>
	<path class="st13" d="M150.5,507.3l0.2,5.9c0,0,17.4-49.1,21.7-59.7c4.3-10.6,1.9-33.5,1.9-33.5l-2.5-0.7l-7.2-13.5l0-0.1
		c0,0-4,18.3-3.6,21.7c0.4,3.4-4.4,37-4.4,37L150.5,507.3z"/>
	<path class="st13" d="M115.8,404.4c0,0,7.1,84.5,18.2,95l-0.3-63.2c0,0,1.5-29.7,0.6-32.1c-0.9-2.3-2-9.2-1.5-15l-0.2-0.7
		l-10.3,6.3H121l-0.7,11.3L115.8,404.4z"/>
	<path class="st9" d="M150.5,507.3l0.2,5.9c0,0,17.4-49.1,21.7-59.7c4.3-10.6,1.9-33.5,1.9-33.5l-2.5-0.7l-7.2-13.5l0-0.1
		c0,0-4,18.3-3.6,21.7c0.4,3.4-4.4,37-4.4,37L150.5,507.3z"/>
	<path class="st9" d="M115.8,404.4c0,0,7.1,84.5,18.2,95l-0.3-63.2c0,0,1.5-29.7,0.6-32.1c-0.9-2.3-2-9.2-1.5-15l-0.2-0.7l-10.3,6.3
		H121l-0.7,11.3L115.8,404.4z"/>
	<ellipse class="st10" cx="152.7" cy="521.2" rx="2.1" ry="2.4"/>
	<ellipse class="st10" cx="150.5" cy="557.2" rx="2.1" ry="2.4"/>
	<path class="st9" d="M134.2,366.2c0,4.2,0.8,8.4,2.3,12.3l0.3-0.5c4.1-5.9,5-14.2,8.7-20.5c1.3-2.3,3.1-4.3,5.3-5.1
		c2.2-0.8,4.9-0.2,6.3,2c0.9,1.4,1.1,3.2,2,4.6c1.7,2.6,5,2.5,7.8,2.1c2.8-0.5,5.9-1,8.1,1.1c2.1,2.1,2.3,5.8,4,8.3
		c1.3,1.9,3.3,2.8,5.4,3.2c3.5-15.7-4.8-31.7-18.4-35.7c-13.7-4-27.6,5.5-31,21.2C134.4,361.5,134.2,363.9,134.2,366.2L134.2,366.2z
		"/>
	<path class="st14" d="M148.5,328.5c-5.3,2.6-10.5,5.8-14.5,10.7s-6.7,11.5-6.4,18.2c0.1,2.1,0.6,4.2,1.5,6.1
		c0.8,1.6,2.1,2.9,2.6,4.7c0.5,2.1-0.2,4.3-0.2,6.5c0,2.2,1.4,4.8,3.2,4.2c0.7-0.3,1.2-0.8,1.6-1.5c4.1-5.9,5-14.2,8.7-20.5
		c1.3-2.3,3.1-4.3,5.3-5.1c2.2-0.8,4.9-0.2,6.3,2c0.9,1.4,1.1,3.2,2,4.6c1.7,2.6,5,2.5,7.8,2.1c2.8-0.5,5.9-1,8.1,1.1s2.3,5.8,4,8.3
		c2.1,3,5.8,3.4,9.1,3.6c-1.3-3.5-0.9-7.6,0.3-11.1c1.2-3.6,3-6.8,4.2-10.3c1-2.4,1.4-5,1.3-7.6c-0.2-2.6-1.3-5.2-3.3-6.3
		c-1.1-0.7-2.5-0.8-3.6-1.7c-3.1-2.5-3-6.5-7.1-7.8c-3.3-1-6.9-1-10.3-2.1C161.8,324,155.6,325.5,148.5,328.5z"/>
	<path class="st9" d="M74.1,573.3c0,0-5.8,6.5-6.5,6.4c-0.8-0.1-1.9-5.9-1.9-5.9L74.1,573.3z"/>
	<path class="st11" d="M73.5,572.7c0,0-5.8,6.5-6.5,6.4c-0.8-0.1-1.9-5.9-1.9-5.9L73.5,572.7z"/>
	<path class="st9" d="M58,578.2c0,0,24.5-6.5,30.7-3.5c0,0-2.3-16-1.9-18.9c0.4-2.9-0.1-13.2-0.1-13.2s-1.4-19,0.5-24.3
		s0.8-19.5,0.8-19.5l-27.9,15.3C60.1,514.2,59.7,574,58,578.2z"/>
	<path class="st12" d="M57.5,577.5c0,0,24.5-6.5,30.7-3.5c0,0-2.3-16-1.9-18.9c0.4-2.9-0.1-13.1-0.1-13.1s-1.4-19,0.5-24.4
		c1.9-5.3,0.9-19.4,0.9-19.4l-27.9,15.3C59.5,513.5,59.2,573.3,57.5,577.5z"/>
	<g class="st15">
		<path d="M187,370.3c-1.1-3.4-0.7-7.3,0.5-10.7c1.2-3.6,3-6.8,4.2-10.3c1-2.4,1.4-5,1.3-7.6c0,0,0-0.1,0-0.1
			c0.3,0.9,0.5,1.8,0.6,2.7c0.1,2.6-0.4,5.2-1.3,7.6c-1.3,3.5-3.1,6.7-4.2,10.3C187.2,364.8,186.8,367.6,187,370.3z"/>
		<path d="M134.2,376.3c0.7-0.3,1.2-0.8,1.6-1.5c4.1-5.9,5-14.2,8.7-20.5c1.3-2.3,3.1-4.3,5.3-5.1c2.2-0.8,4.9-0.2,6.3,2
			c0.9,1.4,1.1,3.2,2,4.6c1.7,2.6,5,2.5,7.8,2.1c2.8-0.5,5.9-1,8.1,1.1s2.3,5.8,4,8.3c2.1,3,5.7,3.4,9,3.6c0.1,0.9,0.3,1.8,0.7,2.6
			c-3.3-0.2-7-0.5-9.1-3.6c-1.7-2.5-1.9-6.2-4-8.3c-2.1-2.1-5.3-1.6-8.1-1.1c-2.8,0.5-6.1,0.6-7.8-2.1c-0.9-1.4-1.1-3.2-2-4.6
			c-1.3-2.2-4.1-2.9-6.3-2c-2.2,0.8-4,2.9-5.3,5.1c-3.7,6.3-4.6,14.6-8.7,20.5c-0.4,0.7-1,1.2-1.6,1.5c-1.8,0.6-3.2-2-3.2-4.2v-0.1
			C132.2,375.8,133.2,376.6,134.2,376.3z"/>
		<path d="M128.7,360.9c0.9,1.6,2.1,2.9,2.6,4.7c0.1,0.5,0.2,1,0.2,1.5c-0.6-1.3-1.5-2.4-2.2-3.6c-0.7-1.4-1.2-2.9-1.3-4.5
			C128.2,359.7,128.4,360.3,128.7,360.9z"/>
	</g>
	<ellipse class="st16" cx="324" cy="840.2" rx="26.4" ry="4.7"/>
</g>
</svg>
