<?xml version="1.0" encoding="utf-8"?>
<!-- Generator: Adobe Illustrator 24.0.1, SVG Export Plug-In . SVG Version: 6.00 Build 0)  -->
<svg version="1.1" id="Capa_1" xmlns="http://www.w3.org/2000/svg" xmlns:xlink="http://www.w3.org/1999/xlink" x="0px" y="0px"
	 viewBox="0 0 2263 1989" style="enable-background:new 0 0 2263 1989;" xml:space="preserve">
<style type="text/css">
	.st0{fill:#FFFFFF;}
	.st1{fill:#215184;}
	.st2{fill:#00233C;}
	.st3{fill:#C7E7E4;}
	.st4{fill:#578582;}
	.st5{fill:#3F6461;}
	.st6{fill:#7AC2BC;}
	.st7{fill:#557977;}
	.st8{fill:#A0C7C4;}
	.st9{fill:#729A98;}
	.st10{fill:#489343;}
	.st11{fill:#636F71;}
	.st12{opacity:0.6;fill:#344041;}
	.st13{fill:#878A94;}
	.st14{fill:#050B1F;}
	.st15{fill:#A1A4BE;}
	.st16{fill:#232839;}
	.st17{fill:#C9CBDD;}
	.st18{fill:#8285A4;}
	.st19{fill:#F7F8FC;}
	.st20{fill:#64688B;}
	.st21{fill:#7E819D;}
	.st22{fill:#5E8BC8;}
	.st23{fill:none;stroke:#FFFFFF;stroke-width:12.2602;stroke-linecap:round;stroke-miterlimit:10;}
	.st24{fill:#ED2224;}
</style>
<g>
	<g>
		<g>
			<rect x="-24.3" y="9.5" class="st0" width="2262.7" height="1988.8"/>
			<path class="st1" d="M1959.8,1570.5c39.2-101.9,60.8-212.5,60.8-328.2c0-504.5-409-913.5-913.5-913.5s-913.5,409-913.5,913.5
				c0,115.7,21.6,226.3,60.8,328.2H1959.8z"/>
			<g>
				<path class="st0" d="M676.1,539.9c0,4.9-4,8.9-8.9,8.9c-4.9,0-8.9-4-8.9-8.9c0-4.9,4-8.9,8.9-8.9
					C672.1,531,676.1,535,676.1,539.9z"/>
				<path class="st0" d="M864.1,685.4c0,4.9-4,8.9-8.9,8.9c-4.9,0-8.9-4-8.9-8.9c0-4.9,4-8.9,8.9-8.9
					C860.1,676.5,864.1,680.5,864.1,685.4z"/>
				<path class="st0" d="M1219.3,479.2c0,4.9-4,8.9-8.9,8.9c-4.9,0-8.9-4-8.9-8.9c0-4.9,4-8.9,8.9-8.9
					C1215.3,470.3,1219.3,474.3,1219.3,479.2z"/>
				<path class="st0" d="M1453.5,557.7c0,4.9-4,8.9-8.9,8.9c-4.9,0-8.9-4-8.9-8.9c0-4.9,4-8.9,8.9-8.9
					C1449.5,548.8,1453.5,552.7,1453.5,557.7z"/>
				<path class="st0" d="M1351,419.7c0,4.9-4,8.9-8.9,8.9c-4.9,0-8.9-4-8.9-8.9c0-4.9,4-8.9,8.9-8.9
					C1347,410.9,1351,414.8,1351,419.7z"/>
				<path class="st0" d="M934.6,539.9c0,4.9-4,8.9-8.9,8.9c-4.9,0-8.9-4-8.9-8.9c0-4.9,4-8.9,8.9-8.9
					C930.6,531,934.6,535,934.6,539.9z"/>
				<path class="st0" d="M1047.7,392.7c0,4.9-4,8.9-8.9,8.9c-4.9,0-8.9-4-8.9-8.9c0-4.9,4-8.9,8.9-8.9
					C1043.7,383.8,1047.7,387.8,1047.7,392.7z"/>
				<path class="st0" d="M571.4,601.5c0,4.9-4,8.9-8.9,8.9c-4.9,0-8.9-4-8.9-8.9c0-4.9,4-8.9,8.9-8.9
					C567.4,592.7,571.4,596.6,571.4,601.5z"/>
				<path class="st0" d="M535.5,755.9c0,4.9-4,8.9-8.9,8.9c-4.9,0-8.9-4-8.9-8.9c0-4.9,4-8.9,8.9-8.9
					C531.5,747,535.5,751,535.5,755.9z"/>
				<path class="st0" d="M703.1,853c0,4.9-4,8.9-8.9,8.9c-4.9,0-8.9-4-8.9-8.9c0-4.9,4-8.9,8.9-8.9
					C699.1,844.1,703.1,848.1,703.1,853z"/>
				<path class="st0" d="M1091.6,730.6c0,4.9-4,8.9-8.9,8.9c-4.9,0-8.9-4-8.9-8.9c0-4.9,4-8.9,8.9-8.9
					C1087.6,721.7,1091.6,725.7,1091.6,730.6z"/>
				<path class="st0" d="M1073.8,619.3c0,4.9-4,8.9-8.9,8.9c-4.9,0-8.9-4-8.9-8.9c0-4.9,4-8.9,8.9-8.9
					C1069.9,610.4,1073.8,614.4,1073.8,619.3z"/>
				<path class="st0" d="M1245.9,548.8c0,4.9-4,8.9-8.9,8.9c-4.9,0-8.9-4-8.9-8.9c0-4.9,4-8.9,8.9-8.9
					C1241.9,539.9,1245.9,543.9,1245.9,548.8z"/>
				<path class="st0" d="M1635.7,601.5c0,4.9-4,8.9-8.9,8.9c-4.9,0-8.9-4-8.9-8.9c0-4.9,4-8.9,8.9-8.9
					C1631.7,592.7,1635.7,596.6,1635.7,601.5z"/>
				<path class="st0" d="M1325.7,721.7c0,4.9-4,8.9-8.9,8.9c-4.9,0-8.9-4-8.9-8.9c0-4.9,4-8.9,8.9-8.9
					C1321.8,712.9,1325.7,716.8,1325.7,721.7z"/>
				<path class="st0" d="M1485.4,747c0,4.9-4,8.9-8.9,8.9c-4.9,0-8.9-4-8.9-8.9c0-4.9,4-8.9,8.9-8.9
					C1481.4,738.1,1485.4,742.1,1485.4,747z"/>
				<path class="st0" d="M1752.8,747c0,4.9-4,8.9-8.9,8.9c-4.9,0-8.9-4-8.9-8.9c0-4.9,4-8.9,8.9-8.9
					C1748.8,738.1,1752.8,742.1,1752.8,747z"/>
				<path class="st0" d="M1644.6,861.9c0,4.9-4,8.9-8.9,8.9c-4.9,0-8.9-4-8.9-8.9c0-4.9,4-8.9,8.9-8.9
					C1640.6,853,1644.6,857,1644.6,861.9z"/>
				<path class="st0" d="M1871.2,995c0,4.9-4,8.9-8.9,8.9c-4.9,0-8.9-4-8.9-8.9c0-4.9,4-8.9,8.9-8.9
					C1867.2,986.2,1871.2,990.2,1871.2,995z"/>
				<path class="st0" d="M1683.6,1096c0,4.9-4,8.9-8.9,8.9c-4.9,0-8.9-4-8.9-8.9c0-4.9,4-8.9,8.9-8.9
					C1679.6,1087.1,1683.6,1091.1,1683.6,1096z"/>
				<path class="st0" d="M1485.4,932.4c0,4.9-4,8.9-8.9,8.9c-4.9,0-8.9-4-8.9-8.9c0-4.9,4-8.9,8.9-8.9
					C1481.4,923.5,1485.4,927.5,1485.4,932.4z"/>
				<path class="st0" d="M1593.1,1003.9c0,4.9-4,8.9-8.9,8.9c-4.9,0-8.9-4-8.9-8.9c0-4.9,4-8.9,8.9-8.9
					C1589.2,995,1593.1,999,1593.1,1003.9z"/>
				<path class="st0" d="M1272.5,1071.2c0,4.9-4,8.9-8.9,8.9c-4.9,0-8.9-4-8.9-8.9c0-4.9,4-8.9,8.9-8.9
					C1268.5,1062.3,1272.5,1066.3,1272.5,1071.2z"/>
				<path class="st0" d="M1342.1,891.1c0,4.9-4,8.9-8.9,8.9c-4.9,0-8.9-4-8.9-8.9c0-4.9,4-8.9,8.9-8.9
					C1338.2,882.3,1342.1,886.2,1342.1,891.1z"/>
				<path class="st0" d="M1146.1,932.4c0,4.9-4,8.9-8.9,8.9c-4.9,0-8.9-4-8.9-8.9c0-4.9,4-8.9,8.9-8.9
					C1142.2,923.5,1146.1,927.5,1146.1,932.4z"/>
				<path class="st0" d="M1435.7,1104.9c0,4.9-4,8.9-8.9,8.9c-4.9,0-8.9-4-8.9-8.9c0-4.9,4-8.9,8.9-8.9
					C1431.7,1096,1435.7,1100,1435.7,1104.9z"/>
				<path class="st0" d="M1871.2,839.7c0,4.9-4,8.9-8.9,8.9c-4.9,0-8.9-4-8.9-8.9c0-4.9,4-8.9,8.9-8.9
					C1867.2,830.8,1871.2,834.8,1871.2,839.7z"/>
				<path class="st0" d="M385.2,839.7c0,4.9-4,8.9-8.9,8.9c-4.9,0-8.9-4-8.9-8.9c0-4.9,4-8.9,8.9-8.9
					C381.2,830.8,385.2,834.8,385.2,839.7z"/>
				<path class="st0" d="M503.6,1012.8c0,4.9-4,8.9-8.9,8.9c-4.9,0-8.9-4-8.9-8.9c0-4.9,4-8.9,8.9-8.9
					C499.6,1003.9,503.6,1007.9,503.6,1012.8z"/>
				<path class="st0" d="M274.7,1122.6c0,4.9-4,8.9-8.9,8.9s-8.9-4-8.9-8.9c0-4.9,4-8.9,8.9-8.9S274.7,1117.7,274.7,1122.6z"/>
				<path class="st0" d="M394,1290.7c0,4.9-4,8.9-8.9,8.9c-4.9,0-8.9-4-8.9-8.9c0-4.9,4-8.9,8.9-8.9
					C390,1281.8,394,1285.8,394,1290.7z"/>
				<path class="st0" d="M694.2,1140.4c0,4.9-4,8.9-8.9,8.9c-4.9,0-8.9-4-8.9-8.9c0-4.9,4-8.9,8.9-8.9
					C690.3,1131.5,694.2,1135.5,694.2,1140.4z"/>
				<path class="st0" d="M832.2,986.2c0,4.9-4,8.9-8.9,8.9c-4.9,0-8.9-4-8.9-8.9c0-4.9,4-8.9,8.9-8.9
					C828.2,977.3,832.2,981.3,832.2,986.2z"/>
				<path class="st0" d="M1015.8,1104.9c0,4.9-4,8.9-8.9,8.9c-4.9,0-8.9-4-8.9-8.9c0-4.9,4-8.9,8.9-8.9
					C1011.8,1096,1015.8,1100,1015.8,1104.9z"/>
				<circle class="st0" cx="846.4" cy="1246.8" r="8.9"/>
				<path class="st0" d="M622,1323.9c0,4.9-4,8.9-8.9,8.9c-4.9,0-8.9-4-8.9-8.9c0-4.9,4-8.9,8.9-8.9C618,1315.1,622,1319,622,1323.9
					z"/>
				<path class="st0" d="M1945.7,1168.3c0,4.9-4,8.9-8.9,8.9c-4.9,0-8.9-4-8.9-8.9c0-4.9,4-8.9,8.9-8.9
					C1941.7,1159.4,1945.7,1163.4,1945.7,1168.3z"/>
				<path class="st0" d="M1833.9,1280c0,4.9-4,8.9-8.9,8.9c-4.9,0-8.9-4-8.9-8.9c0-4.9,4-8.9,8.9-8.9
					C1830,1271.2,1833.9,1275.1,1833.9,1280z"/>
			</g>
			<polygon class="st2" points="1863.5,1164.2 1863.5,1111.7 1849.9,1111.7 1849.9,1055.5 1842.7,1055.5 1842.7,1018.1 1774,1018.1 
				1774,1055.5 1766.7,1055.5 1766.7,1111.7 1755.3,1111.7 1755.3,1208.4 1718.9,1208.4 1718.9,1041 1634.6,1041 1634.6,928.6 
				1586.8,928.6 1586.8,899.5 1556.6,899.5 1556.6,862.1 1478.6,862.1 1478.6,1194.9 1404.8,1194.9 1404.8,1086.7 1391.2,1086.7 
				1391.2,1026.4 1256,1026.4 1256,1086.7 1246.7,1086.7 1246.7,1230.3 1214.4,1230.3 1214.4,1139.8 1149.9,1139.8 1149.9,1014.2 
				1139.5,1014.2 1139.5,984.8 1044.9,984.8 1044.9,1014.2 1036.5,1014.2 1036.5,1175.1 1005.3,1175.1 1005.3,1108.6 998.1,1108.6 
				998.1,1086.7 931.5,1086.7 931.5,1108.6 923.2,1108.6 923.2,1230.3 890.9,1230.3 890.9,1147.1 834.8,1147.1 834.8,1059.7 
				730.7,1014.2 730.7,1235 685,1235 685,1175.1 617.4,1175.1 617.4,1086.7 602.8,1086.7 602.8,1059.7 522.7,1059.7 522.7,1086.7 
				515.4,1086.7 515.4,1238.6 474.9,1238.6 474.9,1205.3 451.7,1205.3 451.7,996.8 439.4,996.8 439.4,968.2 428.3,968.2 
				428.3,943.2 398.1,943.2 398.1,792.4 392.9,792.4 392.9,943.2 362.8,943.2 362.8,968.2 351.7,968.2 351.7,996.8 339.3,996.8 
				339.3,1205.3 315.7,1205.3 315.7,1506 1941.1,1506 1941.1,1196.9 			"/>
			<g>
				<path class="st3" d="M872.7,1493.4c0,15.8-84.3,28.6-188.4,28.6c-104,0-188.3-12.8-188.3-28.6l44.1-80h288.6L872.7,1493.4z"/>
				<path class="st4" d="M828.7,1413.4c0,12.1-64.6,21.9-144.3,21.9c-79.7,0-144.3-9.8-144.3-21.9c0-12.1,64.6-21.9,144.3-21.9
					C764.1,1391.5,828.7,1401.3,828.7,1413.4z"/>
				<g>
					<path class="st5" d="M742.1,1096.5l-78.2-78.2l-122.3,122.3l0.1,0.1c-0.2,0.1-0.4,0.2-0.6,0.3c-4.6,4.6,9.1,25.9,30.7,47.5
						c21.6,21.6,42.9,35.3,47.5,30.7c0.2-0.1,0.2-0.4,0.3-0.6l0.1,0.1L742.1,1096.5z"/>
					<g>
						<polygon class="st6" points="720,1410.7 648.7,1410.7 664.3,1133.5 704.5,1133.5 						"/>
						<polygon class="st3" points="684.4,1410.7 720,1410.7 704.5,1133.5 684.4,1133.5 						"/>
					</g>
					<path class="st7" d="M777.9,1041.5c11.4,43.9-15,88.7-58.9,100c-43.9,11.3-88.7-15-100-58.9c-11.4-43.9,15-88.7,58.9-100
						C721.8,971.2,766.5,997.6,777.9,1041.5z"/>
					<g>
						<path class="st3" d="M1035,1166.7L806.3,941.9L590.1,705.2c0,0-154.6,98.6,91.8,356.7C930.8,1317.5,1035,1166.7,1035,1166.7z"
							/>
						<path class="st8" d="M705.9,1039.7C526.4,851.7,559.7,748.4,591,706.1l-0.9-1c0,0-154.6,98.6,91.8,356.7
							c242.2,248.8,347.3,112.7,352.8,105.2C991.2,1196.7,886.7,1225.6,705.9,1039.7z"/>
						<path class="st9" d="M1035,1166.7c-15.5,15-81.7-27-164-100.1c-2.9-2.6-5.9-5.2-8.9-8c-28.1-25.4-57.9-54.2-88.1-85.5
							c-32-33.2-61.3-65.9-86.6-96.5c-2.5-3-4.9-5.9-7.3-8.8c-67.5-82.6-105.1-148-89.9-162.7c17.8-17.1,102.1,40.5,201,134.1
							c2.9,2.8,5.9,5.6,8.8,8.4c16.8,16.1,33.9,33.2,51.1,51.1c13,13.5,25.5,26.8,37.4,40c2.9,3.2,5.7,6.3,8.6,9.5
							C993.7,1055.9,1053.5,1148.8,1035,1166.7z"/>
					</g>
				</g>
				<path class="st0" d="M950.7,810.9c0,15.7-12.8,28.5-28.5,28.5c-15.7,0-28.5-12.8-28.5-28.5c0-15.7,12.8-28.5,28.5-28.5
					C937.9,782.4,950.7,795.2,950.7,810.9z"/>
				<g>
					<path class="st0" d="M929.1,803.8l-31.9,144.4l-26.2,118.4c-2.9-2.6-5.9-5.2-8.9-8l26.5-119.9l26.7-120.7L800,847.7
						l-112.6,28.9c-2.5-3-4.9-5.9-7.3-8.8l111.1-28.6L929.1,803.8z"/>
				</g>
			</g>
			<path class="st10" d="M2020.6,1242.4c0-29.5-1.5-58.7-4.2-87.5c-21.6,31.7-20.6,77-20.6,77c-102.1-19.7-99,74-99,74
				c-127.7-47.9-102.2,76.6-102.2,76.6c-153.2-57.5-201.1,83-201.1,83c-22.3-114.9-143.7-61.4-143.7-61.4
				c3.2-98.1-95.8-55.4-95.8-55.4c-16-177.5-211.5-68.3-211.5-68.3c-150.8-70.2-191.8,68.3-191.8,68.3
				c-125.5-40.2-120.3,72.1-120.3,72.1c-140.5-63.8-197.9,44.7-197.9,44.7c-41.5-118.1-130.9-47.9-130.9-47.9
				c-28.7-84.6-89.4-54.3-89.4-54.3c3.2-83-89.4-57.5-89.4-57.5c-29.7-85.3-88.9-80.6-129.5-64.9c0,0.4,0,0.9,0,1.3
				c0,115.7,21.6,226.3,60.8,328.2h56.8l1661.8-36.5C2003.8,1442.4,2020.6,1344.4,2020.6,1242.4z"/>
			<path class="st11" d="M2063.1,1566.1c0,29.8-28.6,54-63.9,54H214.8c-35.3,0-63.9-24.2-63.9-54v-9c0-29.8,28.6-54,63.9-54h1784.5
				c35.3,0,63.9,24.2,63.9,54V1566.1z"/>
			<path class="st12" d="M151,1567c0.5,29.5,28.9,53.2,63.8,53.2h1784.5c34.9,0,63.3-23.8,63.8-53.2H151z"/>
		</g>
	</g>
</g>
<g>
	<g>
		<polygon class="st13" points="1641.5,422.5 1734.7,570.9 1741.1,566.9 1647.9,418.5 		"/>
		<polygon class="st13" points="1552.2,478.6 1645.4,627 1651.8,622.9 1558.6,474.6 		"/>
		<g>
			
				<rect x="1626.5" y="494.3" transform="matrix(0.8468 -0.5319 0.5319 0.8468 -29.9797 951.5919)" class="st14" width="20.9" height="67.1"/>
			<polygon class="st15" points="1473.6,626 1477.6,632.4 1508.3,613.1 1504.3,606.7 			"/>
			<polygon class="st16" points="1499.3,609.9 1503.3,616.3 1537.6,594.7 1533.6,588.3 			"/>
			<polygon class="st17" points="1513.4,547 1585.8,501.6 1610.1,504.8 1647.2,563.9 1638.4,585.4 1566.1,630.8 			"/>
			
				<rect x="1536.9" y="529.5" transform="matrix(0.8468 -0.5319 0.5319 0.8468 -69.6728 916.0972)" class="st15" width="37.3" height="99"/>
			
				<rect x="1538.6" y="535.5" transform="matrix(0.8471 -0.5315 0.5315 0.8471 -74.4755 911.105)" class="st18" width="14.9" height="99"/>
			<polygon class="st19" points="1610.1,504.8 1647.2,563.9 1638.4,585.4 1585.8,501.6 			"/>
			<polygon class="st20" points="1504.8,563.9 1547.1,631.2 1566.1,630.8 1513.4,547 			"/>
			
				<rect x="1654" y="444.9" transform="matrix(0.8468 -0.532 0.532 0.8468 -3.9829 974.9169)" class="st17" width="72.5" height="99"/>
			
				<rect x="1656.7" y="454.2" transform="matrix(0.8467 -0.532 0.532 0.8467 -11.1948 968.5884)" class="st15" width="37.3" height="99"/>
			
				<rect x="1658.4" y="460.2" transform="matrix(0.8469 -0.5318 0.5318 0.8469 -15.9773 963.8936)" class="st18" width="14.9" height="99"/>
			<polygon class="st20" points="1624.7,488.6 1667,555.9 1685.9,555.6 1633.2,471.7 			"/>
			<polygon class="st16" points="1497.5,568.5 1539.8,635.8 1547.1,631.2 1504.8,563.9 			"/>
			<path class="st17" d="M1445.4,555c22.6,0.1,50.5,18.9,69.7,49.4c19.2,30.5,24,63.8,14.3,84.2L1445.4,555z"/>
			<path class="st15" d="M1513.9,602.5c0.4,0.6,0.8,1.3,1.2,1.9c19.2,30.5,24,63.8,14.3,84.2l-28.5-45.4
				C1511.9,633.2,1514.8,618.1,1513.9,602.5z"/>
			<path class="st17" d="M1469.3,624.2c-3.5,2.2-4.6,6.9-2.4,10.4c2.2,3.5,6.9,4.6,10.4,2.4c3.5-2.2,4.6-6.9,2.4-10.4
				C1477.5,623.1,1472.8,622,1469.3,624.2z"/>
			<path class="st16" d="M1609.9,491.2c-0.5,0.3-0.7,1-0.3,1.5l47.2,75.1c0.3,0.5,1,0.7,1.5,0.3l5.5-3.5c0.5-0.3,0.7-1,0.3-1.5
				l-47.2-75.1c-0.3-0.5-1-0.7-1.5-0.3L1609.9,491.2z"/>
			<polygon class="st15" points="1699.7,441.4 1742.1,508.8 1756.3,492.7 1720.4,435.6 			"/>
			
				<rect x="1737.5" y="431.5" transform="matrix(0.8468 -0.5319 0.5319 0.8468 21.8138 997.9252)" class="st21" width="11.5" height="59.1"/>
		</g>
		<g>
			<polygon class="st0" points="1349.1,186.5 1545,498.4 1668.1,421.1 1472.2,109.2 			"/>
			<polygon class="st22" points="1359.9,191.3 1545.4,486.7 1657.3,416.4 1471.8,121 			"/>
			
				<rect x="1438.2" y="299.9" transform="matrix(0.8468 -0.5319 0.5319 0.8468 69.0966 847.8494)" class="st0" width="136.2" height="8.1"/>
			
				<rect x="1523.5" y="431.1" transform="matrix(0.8467 -0.5321 0.5321 0.8467 13.4238 912.0826)" class="st0" width="132.2" height="3.2"/>
			
				<rect x="1512" y="412.8" transform="matrix(0.8471 -0.5314 0.5314 0.8471 21.0361 901.9732)" class="st0" width="132.2" height="3.2"/>
			<polygon class="st0" points="1509.7,429.9 1511.5,432.6 1623.4,362.3 1621.7,359.6 			"/>
			<polygon class="st0" points="1498.2,411.6 1499.9,414.3 1611.9,344 1610.2,341.3 			"/>
			
				<rect x="1477.5" y="357.8" transform="matrix(0.846 -0.5331 0.5331 0.846 46.0021 878.2363)" class="st0" width="132.2" height="3.2"/>
			<polygon class="st0" points="1475.2,374.9 1476.9,377.7 1588.9,307.4 1587.1,304.6 			"/>
			<polygon class="st0" points="1463.7,356.6 1465.4,359.4 1577.4,289.1 1575.6,286.3 			"/>
			
				<rect x="1431.4" y="284.6" transform="matrix(0.8475 -0.5309 0.5309 0.8475 76.5118 838.657)" class="st0" width="132.2" height="3.2"/>
			
				<rect x="1419.9" y="266.3" transform="matrix(0.8475 -0.5309 0.5309 0.8475 84.4661 829.7118)" class="st0" width="132.2" height="3.2"/>
			
				<rect x="1408.4" y="247.9" transform="matrix(0.8464 -0.5326 0.5326 0.8464 93.6 823.6204)" class="st0" width="132.2" height="3.2"/>
			
				<rect x="1396.9" y="229.6" transform="matrix(0.8475 -0.5309 0.5309 0.8475 100.4034 811.9051)" class="st0" width="132.2" height="3.2"/>
			
				<rect x="1385.4" y="211.3" transform="matrix(0.8466 -0.5323 0.5323 0.8466 109.353 805.23)" class="st0" width="132.2" height="3.2"/>
			
				<rect x="1373.9" y="193" transform="matrix(0.8471 -0.5314 0.5314 0.8471 116.7419 794.9787)" class="st0" width="132.2" height="3.2"/>
			
				<rect x="1362.4" y="174.7" transform="matrix(0.846 -0.5331 0.5331 0.846 125.9611 788.717)" class="st0" width="132.2" height="3.2"/>
			
				<rect x="1542.8" y="106.9" transform="matrix(0.8468 -0.5319 0.5319 0.8468 87 864.6404)" class="st0" width="3.2" height="348.8"/>
			
				<rect x="1519.3" y="121.6" transform="matrix(0.8468 -0.5319 0.5319 0.8468 75.5508 854.4196)" class="st0" width="3.2" height="348.8"/>
			
				<rect x="1495.8" y="136.4" transform="matrix(0.8468 -0.5319 0.5319 0.8468 64.0878 844.1586)" class="st0" width="3.2" height="348.8"/>
			
				<rect x="1472.3" y="151.2" transform="matrix(0.8468 -0.5319 0.5319 0.8468 52.6404 833.9485)" class="st0" width="3.2" height="348.8"/>
		</g>
		<g>
			
				<rect x="1709.2" y="554.7" transform="matrix(0.8468 -0.5319 0.5319 0.8468 -120.0281 1061.0829)" class="st0" width="145.3" height="368.3"/>
			
				<rect x="1715.8" y="564.5" transform="matrix(0.8468 -0.532 0.532 0.8468 -120.0254 1061.1021)" class="st22" width="132.2" height="348.8"/>
			
				<rect x="1711.5" y="735" transform="matrix(0.8464 -0.5325 0.5325 0.8464 -120.2466 1061.167)" class="st0" width="136.2" height="8.1"/>
			
				<rect x="1796.8" y="866.2" transform="matrix(0.8473 -0.5311 0.5311 0.8473 -176.4489 1121.9028)" class="st0" width="132.2" height="3.2"/>
			
				<rect x="1785.3" y="847.9" transform="matrix(0.846 -0.5331 0.5331 0.846 -167.8456 1117.7867)" class="st0" width="132.2" height="3.2"/>
			<polygon class="st0" points="1783.1,865 1784.8,867.7 1896.7,797.4 1895,794.6 			"/>
			<polygon class="st0" points="1771.5,846.6 1773.3,849.4 1885.2,779.1 1883.5,776.3 			"/>
			
				<rect x="1750.8" y="792.9" transform="matrix(0.8468 -0.5319 0.5319 0.8468 -144.2741 1088.1854)" class="st0" width="132.2" height="3.2"/>
			
				<rect x="1739.3" y="774.6" transform="matrix(0.8466 -0.5323 0.5323 0.8466 -136.1699 1080.0406)" class="st0" width="132.2" height="3.2"/>
			
				<rect x="1727.8" y="756.3" transform="matrix(0.8466 -0.5323 0.5323 0.8466 -128.1852 1071.1082)" class="st0" width="132.2" height="3.2"/>
			
				<rect x="1704.7" y="719.6" transform="matrix(0.8455 -0.534 0.534 0.8455 -111.537 1057.0651)" class="st0" width="132.2" height="3.2"/>
			<polygon class="st0" points="1702.5,736.7 1704.2,739.5 1816.1,669.2 1814.4,666.4 			"/>
			<polygon class="st0" points="1691,718.4 1692.7,721.2 1804.6,650.8 1802.9,648.1 			"/>
			
				<rect x="1670.2" y="664.7" transform="matrix(0.8469 -0.5317 0.5317 0.8469 -88.4992 1025.2145)" class="st0" width="132.2" height="3.2"/>
			
				<rect x="1658.7" y="646.4" transform="matrix(0.8475 -0.5309 0.5309 0.8475 -80.8941 1014.4536)" class="st0" width="132.2" height="3.2"/>
			<polygon class="st0" points="1656.5,663.5 1658.2,666.2 1770.1,595.9 1768.4,593.1 			"/>
			
				<rect x="1635.7" y="609.7" transform="matrix(0.8469 -0.5317 0.5317 0.8469 -64.5534 998.4899)" class="st0" width="132.2" height="3.2"/>
			<polygon class="st0" points="1723.6,569.5 1909.2,864.9 1911.9,863.2 1726.4,567.8 			"/>
			
				<rect x="1792.6" y="556.7" transform="matrix(0.8468 -0.5319 0.5319 0.8468 -114.0022 1066.4747)" class="st0" width="3.2" height="348.8"/>
			
				<rect x="1769.1" y="571.5" transform="matrix(0.8468 -0.5319 0.5319 0.8468 -125.4659 1056.1943)" class="st0" width="3.2" height="348.8"/>
			
				<rect x="1745.6" y="586.2" transform="matrix(0.8468 -0.5319 0.5319 0.8468 -136.9307 1045.9004)" class="st0" width="3.3" height="348.8"/>
		</g>
	</g>
	<g>
		<path class="st23" d="M1446.1,734.2c-23.9-9-44.7-24.4-59.6-46c-14.9-21.6-21.9-46.5-21.8-72.1"/>
		<path class="st23" d="M1461.8,705c-18.9-7.1-35.4-19.3-47.1-36.3c-11.7-17-17.3-36.7-17.2-57"/>
		<path class="st23" d="M1473.5,675.2c-12.9-4.9-24.2-13.2-32.2-24.8c-8-11.6-11.8-25.1-11.8-38.9"/>
	</g>
</g>
<g>
	<path class="st23" d="M1062.1,793c-1.4-25.5-9.9-50-26-70.7c-16.1-20.7-37.8-34.8-62.2-42.4"/>
	<path class="st23" d="M1029.6,799.3c-1.1-20.2-7.8-39.5-20.5-55.8c-12.7-16.3-29.9-27.5-49.2-33.5"/>
	<path class="st23" d="M997.7,801.5c-0.8-13.8-5.3-27-14-38.1c-8.7-11.2-20.4-18.8-33.6-22.9"/>
</g>
<path class="st24" d="M1131.5,1199.9c-28.9-0.8-53.1,21.9-54.1,50.7c-1,28.9,47.9,125.1,47.9,125.1s55.6-93.2,56.6-122.1
	C1182.9,1224.8,1160.4,1200.7,1131.5,1199.9z M1128.8,1277.6c-13.4-0.4-23.8-11.5-23.4-24.9c0.5-13.4,11.7-23.9,25.1-23.5
	c13.4,0.4,23.8,11.5,23.4,24.9c0,0,0,0,0,0C1153.4,1267.5,1142.1,1278,1128.8,1277.6z"/>
</svg>
